<?xml version="1.0" encoding="UTF-8"?><svg id="uuid-45338f5c-4df8-43e2-b42a-bf81e0067f0e" xmlns="http://www.w3.org/2000/svg" xmlns:xlink="http://www.w3.org/1999/xlink" viewBox="0 0 1387.91 267.04"><defs><clipPath id="uuid-b5c3aac7-abb9-4758-a1a4-6dd8e5196ae5"><rect x="453.88" y="111.46" width="43.51" height="103.93" style="fill:none; stroke-width:0px;"/></clipPath><clipPath id="uuid-ff169e45-64ae-4f35-ab18-485e711df786"><path d="M470,113.56c-7.49,7.01-5.32,14.99-6.53,19.82-.97,4.35-6.04,8.46-4.83,11.84,1.93,4.59,18.37,5.56,23.45,10.15,3.38,3.14,3.38,8.22,5.8,11.84,2.42,3.14,7.25,5.32,8.7,8.22,1.21,1.93,1.69,4.35,1.21,6.28-.24,1.93-2.18,4.35-4.11,5.56-2.18,1.45-5.8.48-7.98,2.42-2.9,2.66-3.63,11.6-6.28,14.5-1.93,2.18-4.11,3.14-6.53,3.63-2.66.73-8.7-1.21-9.18,0-.73,1.21,4.83,5.32,4.35,6.53-.24.73-2.42.97-2.42.97-.24,0,2.18-1.69,2.18-1.69.24.24-.73,2.18-1.21,2.18-.24,0-1.45-1.45-1.45-1.93.24-.48,2.18-.97,2.42-.73s-.97,2.42-1.69,2.42c-1.45,0-5.32-4.83-5.8-6.77,0-.97.24-1.93.97-2.66,1.69-1.21,8.22,0,11.36-.97,2.18-.97,4.11-1.69,5.8-3.63,2.42-3.14,2.9-11.36,5.56-14.02,2.18-1.93,6.28-1.21,8.22-2.66,1.45-.97,2.9-1.93,3.14-3.87.24-4.35-9.18-17.89-14.5-22.96-3.87-3.87-8.7-6.04-12.57-7.25-3.14-.97-7.01.73-9.18-.48-1.69-1.21-3.14-3.38-3.38-5.56-.24-3.38,4.35-7.73,5.32-12.33,1.21-4.83-.73-12.57,1.21-16.19,1.21-2.66,4.35-4.59,6.04-5.08,1.21-.24,2.9,0,3.14.48.24.48-1.21,1.93-1.21,1.93" style="fill:none; stroke-width:0px;"/></clipPath><clipPath id="uuid-000a3742-19c1-4de7-8b3a-09c9922b49c7"><rect x="463.54" y="92.13" width="106.35" height="128.1" style="fill:none; stroke-width:0px;"/></clipPath><clipPath id="uuid-5542b618-ae45-431f-bdab-2e561194324e"><path d="M466.13,212.9c17.16,1.21,18.61-2.66,21.03-3.38,1.93-.97,3.38-.97,6.04-.48,4.59.48,14.02,5.32,19.09,6.28,3.14.73,5.08.97,7.98.48,3.63-.48,7.49-3.87,11.84-3.87,4.35-.24,10.15,4.83,14.26,4.11,3.63-.73,6.04-5.32,9.43-7.01,3.38-1.45,8.94,0,10.63-2.42,1.69-2.18.73-10.63-1.45-11.84-1.93-1.21-6.28,3.14-10.39,3.87-4.83.73-14.02,1.69-16.92-.48-1.93-1.45-.48-4.59-2.42-6.28-3.38-2.9-14.99-4.11-20.54-4.59-3.87-.24-7.73,1.45-10.15.48-1.69-.48-2.9-1.45-3.87-3.38-1.69-3.87-.97-15.95.48-21.75,1.21-4.11,2.9-8.22,5.32-9.91,1.69-1.21,6.04.24,6.28-.73.48-.97-5.32-3.63-5.8-5.8-.48-2.66,3.87-6.04,4.11-9.18.48-3.14.48-7.49-1.69-9.67-2.9-2.42-15.23.48-16.44-1.93-.97-2.18,5.32-6.28,6.04-9.91.97-4.11-1.93-10.39-1.45-14.02.24-2.18,2.66-4.11,2.18-5.32-.73-1.21-4.83-1.93-6.77-1.45-1.45.48-3.63,1.69-4.11,3.38-.97,2.9,4.83,9.91,3.63,13.54-.97,3.14-5.8,6.77-9.91,7.25-4.83.97-16.68-3.63-17.16-5.32-.24-.97,1.21-2.42,1.69-2.42.24.24.48,2.42,0,2.66-.24.24-1.93-.73-1.93-1.21-.24-.24,1.21-1.69,1.69-1.45.48.24.73,2.42.48,2.66-.48.24-2.42-1.21-2.42-1.21.24-.48,12.09,5.32,16.44,4.59,3.38-.48,7.73-3.63,8.46-6.04.48-2.42-3.87-5.8-4.35-8.46-.24-2.18-.24-4.11.73-5.8.97-1.93,3.38-4.11,5.56-4.83,2.42-.73,6.53,0,8.46.97,1.21.73,2.18,1.69,2.18,2.9.48,1.69-1.93,3.87-2.18,6.53-.24,3.63,1.93,9.43,1.69,12.81-.24,2.18-.73,3.87-1.69,5.32-1.21,1.45-5.56,2.42-5.32,3.14.24,1.21,12.81-1.93,15.95.73,2.66,2.18,3.63,8.46,3.14,11.84-.24,3.14-4.11,5.32-4.11,7.98,0,2.9,5.08,7.01,4.35,8.7-.73,1.45-4.83.97-6.28,2.18-1.21.97-1.69,2.18-2.42,3.87-1.21,3.14-2.66,10.39-2.42,14.02.24,2.66,2.18,4.59,1.93,6.28-.24,1.21-2.18,2.18-2.18,3.38,0,.73.73,1.93,1.69,2.42,1.93.73,6.04-.97,9.91-.73,6.04.48,19.09,1.69,22.48,5.08,1.93,1.69,1.21,6.77,1.93,7.01.48,0,.48-2.18,1.45-2.66,1.93-.97,9.18,2.42,13.54,1.93,4.11-.24,9.43-5.08,12.09-3.63,2.66,1.69,5.32,10.63,3.38,14.74-2.42,5.32-15.71,11.12-22.48,11.84-5.08.48-9.67-4.11-14.26-3.87-4.11,0-7.98,3.14-11.84,3.63-3.38.48-5.8.24-9.67-.48-5.32-.97-13.78-6.77-19.09-6.28-4.35.48-7.49,4.83-10.88,5.8-2.42.48-4.59.24-7.25,0-2.9-.48-8.46-1.21-8.94-2.42-.24-.73,1.21-2.18,1.21-2.18" style="fill:none; stroke-width:0px;"/></clipPath><clipPath id="uuid-b57a5efe-4e50-474c-822d-b8c73afc00a6"><rect x="458.71" y="48.62" width="36.26" height="41.09" style="fill:none; stroke-width:0px;"/></clipPath><clipPath id="uuid-1eefe1c9-3e22-4956-abf0-20290550fbe4"><path d="M468.55,72.47c-1.69,7.01,2.9,3.87,5.8,4.35,3.63.97,7.73,7.73,11.12,8.94,2.18.73,5.56.97,6.28,0,.73-.73.48-2.42-.24-3.87-1.21-2.42-7.25-4.35-9.67-8.22-2.66-4.59-1.21-14.74-4.35-18.13-2.18-2.18-7.01-2.9-9.43-2.42-1.93.48-3.38,2.18-4.11,4.11-1.45,2.66-2.42,7.98-1.45,11.12.97,2.42,5.56,5.56,5.32,5.8-.24.24-6.77-3.14-8.22-5.8-1.21-2.66-.24-7.49.97-10.63,1.21-2.66,3.14-6.04,5.8-7.01,3.38-1.21,9.91,0,13.05,2.66,3.63,3.63,2.18,14.5,5.08,19.34,2.42,3.63,8.22,4.83,9.67,7.73.97,2.18,1.21,5.32.24,6.77-1.21,1.69-4.35,2.66-6.77,2.18-3.87-.48-9.18-7.98-13.29-9.43-3.38-.97-8.22,1.69-9.67.24-1.21-1.21-.73-4.59-.24-6.28.48-1.45,1.93-3.38,2.66-3.38.48,0,1.45,1.93,1.45,1.93" style="fill:none; stroke-width:0px;"/></clipPath><clipPath id="uuid-5505a184-279f-463f-ae1f-5c7f00173695"><rect x="451.46" y="58.29" width="9.67" height="14.5" style="fill:none; stroke-width:0px;"/></clipPath><clipPath id="uuid-343a564f-d216-486f-9720-4d3933c459cf"><path d="M457.91,60.87c-3.38.97-1.93,8.46-1.45,8.46s2.42-5.32,1.93-6.28c-.48-.48-2.9,0-2.9,0,0-.24,2.66-.73,2.66-.48.24.24-1.21,1.93-1.69,1.93-.24,0-.97-1.93-.73-2.18.48-.48,2.18-.24,2.42.24.24.24-.73,1.93-1.21,1.93-.97.24-3.14-1.45-3.14-2.42,0-.73,1.45-2.42,2.42-2.66s2.9.24,3.38,1.45c.97,1.69-.73,9.67-2.42,10.15-1.21.48-3.87-1.45-4.59-2.66-.48-.97-.24-2.42,0-3.87.24-1.93,1.45-5.32,2.66-6.04.97-.73,3.14-.24,3.38.24.24.48-.73,2.18-.73,2.18" style="fill:none; stroke-width:0px;"/></clipPath><clipPath id="uuid-907b92f3-b9f5-4983-8751-091e66ec4bc4"><rect x="446.62" y="63.12" width="4.83" height="7.25" style="fill:none; stroke-width:0px;"/></clipPath><clipPath id="uuid-2e6e38c1-dab6-4013-b096-e59f31376da2"><path d="M449.93,65.7c.73,4.59-2.9,3.14-3.14,1.93-.48-.97.97-3.87,1.69-4.11.48,0,1.45,2.18,1.45,2.18" style="fill:none; stroke-width:0px;"/></clipPath><clipPath id="uuid-be70f68c-1a09-4e17-b60f-87e875cc882a"><rect x="494.96" y="70.37" width="65.26" height="26.59" style="fill:none; stroke-width:0px;"/></clipPath><clipPath id="uuid-9c13e91c-c9d0-4d4d-80e5-5ee7f1580a63"><path d="M496.34,92.77c1.45-9.43,7.01-8.7,9.91-10.63,3.38-2.42,5.8-8.94,8.94-10.39,2.18-1.21,4.35-.73,7.01,0,3.87.97,8.94,6.77,13.29,7.25,3.38.48,7.98-3.87,9.91-2.9,1.45.73.48,4.59,2.18,5.8,2.18,1.69,9.67-.48,11.12.97.97,1.21.48,3.87,0,5.32-.97,1.93-2.66,3.87-4.83,5.08-2.9,1.21-7.25,1.21-11.36,1.21-4.83-.24-11.84,0-16.19-2.66-3.87-2.42-5.08-11.36-8.46-11.6-3.87-.48-9.18,10.39-13.54,12.81-3.14,1.93-7.98,3.63-8.94,2.9-.48-.24.24-2.66.24-2.66,0,0,0,2.66-.24,2.66,0,0-.73-1.69-.24-2.42.48-1.21,4.35-.73,6.77-2.18,4.11-2.42,9.67-13.05,14.26-13.29,3.63-.24,9.43,5.32,10.88,7.73.73,1.21-.48,2.9.48,3.87,2.18,1.93,13.78,2.66,18.61,1.93,3.63-.24,7.49-1.45,8.94-3.14.97-1.45,1.21-4.83.97-4.83-.48-.24-1.21,1.69-2.18,1.93-1.69.73-5.56.24-7.25-.73-1.45-.97-3.38-2.9-3.38-4.11,0-.97,2.18-2.18,1.93-2.42-.48-.48-6.53,3.87-9.91,3.63-4.11-.48-9.18-6.04-12.81-7.01-2.42-.73-4.35-1.45-6.53-.48-2.66,1.21-4.59,7.73-7.73,9.67-2.66,1.69-7.25.48-8.7,2.42-1.21,1.45,0,6.04-.73,6.77-.73.24-2.42-.48-2.42-.48" style="fill:none; stroke-width:0px;"/></clipPath><clipPath id="uuid-9821b415-49d9-43ff-bde5-ae68b7315acc"><rect x="463.54" y="55.87" width="12.09" height="12.09" style="fill:none; stroke-width:0px;"/></clipPath><clipPath id="uuid-16357940-cb56-4311-bc89-8d39ba302f67"><path d="M476.76,60.38c-5.32,7.98-9.91,6.53-11.12,4.83-.97-1.69,0-6.53,1.45-7.73,1.69-1.45,7.98.48,7.98.48" style="fill:none; stroke-width:0px;"/></clipPath><clipPath id="uuid-344b42d1-bcf8-4684-8268-56d57188cf8b"><rect x="453.88" y="111.46" width="45.92" height="55.59" style="fill:none; stroke-width:0px;"/></clipPath><clipPath id="uuid-5c181d64-f814-4340-b234-ed10638de3fd"><path d="M479.91,121.29c10.63,21.03,17.16,26.83,18.61,30.94.97,2.42,1.21,4.59.48,6.53-.73,1.93-2.18,4.35-4.35,5.32-3.14,1.21-10.88.73-13.78-.97-2.18-1.45-1.69-4.59-4.11-6.28-3.63-2.66-14.5-2.42-18.37-4.83-2.18-1.21-3.38-2.42-4.11-4.59-.97-2.9-.48-7.73.97-12.33,2.18-6.77,9.43-21.99,13.78-23.45,2.18-.73,4.83,1.21,6.04,2.9,1.21,1.69,1.93,4.83,1.21,6.77-.97,2.18-5.08,4.83-7.25,4.83-2.18.24-4.83-1.69-5.8-3.38-1.21-1.69-1.45-5.08-.48-6.77,1.21-2.18,5.56-4.11,7.73-4.11,1.69,0,3.14.97,4.11,2.18,1.21,1.45,2.42,4.59,1.93,6.53-.73,2.18-6.77,3.87-6.77,5.56,0,1.45,3.87,2.66,4.35,4.35.73,1.69,0,4.35-1.21,6.04-.97,1.69-6.04,2.18-5.8,3.38,0,1.93,14.5,3.38,18.13,6.04,1.93,1.69,4.11,4.35,3.63,5.56s-3.87,2.66-5.8,1.69c-4.59-1.69-12.09-18.85-14.26-24.9-.97-2.66-1.45-4.83-.97-6.77.48-1.45,1.21-2.9,2.42-3.63,1.45-.97,4.11-1.45,5.8-.73,1.69.48,3.87,4.11,3.87,4.11" style="fill:none; stroke-width:0px;"/></clipPath><clipPath id="uuid-95ed82b6-14da-4462-a4cd-e52091def2c5"><rect x="465.96" y="133.21" width="12.09" height="12.09" style="fill:none; stroke-width:0px;"/></clipPath><clipPath id="uuid-93747ba5-2c76-44c4-a1d3-529379b1e9ea"><path d="M466.85,144.5c-1.69-6.77-.97-7.98,0-8.94,1.21-.97,3.87-1.93,5.56-1.45,1.45.24,3.63,2.18,4.35,3.63.48,1.69.24,4.35-.73,5.8-.97,1.21-3.38,2.66-5.08,2.66s-4.11-1.45-5.08-2.66c-.73-1.45-1.21-4.11-.48-5.8.48-1.45,2.66-3.38,4.35-3.63,1.93-.24,5.32.97,6.53,2.42,1.21,1.93,1.21,6.77-.24,8.22-1.45,1.45-8.22.73-8.22.73" style="fill:none; stroke-width:0px;"/></clipPath><clipPath id="uuid-38acfdb9-ad81-49c9-80ed-733d77b7a86b"><rect x="461.13" y="152.55" width="50.76" height="62.84" style="fill:none; stroke-width:0px;"/></clipPath><clipPath id="uuid-d936f683-15ac-4728-8a32-149e6c7d9f80"><path d="M497.79,156.58c7.73,17.64,8.7,22.24,8.46,25.86-.24,2.9-.97,6.04-2.42,7.73-1.45,1.45-3.63.73-5.8,2.42-3.63,2.66-6.77,12.09-11.84,15.71-5.08,3.38-17.4,6.28-17.89,5.32-.48-.48,5.08-2.9,5.56-4.83.73-1.93-2.9-5.32-1.93-7.25,1.69-3.38,11.12-6.28,17.4-7.49,6.28-1.21,17.4-2.66,20.06,0,1.93,1.69,1.45,6.77.24,8.7-1.21,1.69-4.35,3.14-6.28,2.9-1.93,0-4.83-1.69-5.8-3.38-1.21-1.69-1.45-5.08-.48-6.77.73-1.93,3.63-3.87,5.32-4.35,1.69-.24,3.38,0,4.59.73,1.69,1.21,3.87,3.63,3.87,5.8.24,2.18-2.18,6.53-4.35,7.49-2.18.97-6.04-2.9-8.7-2.18-2.66.73-4.35,5.8-7.49,7.49-3.38,2.18-8.22,3.38-12.33,3.87-4.35.48-10.15.73-13.05-.73-2.18-1.21-3.87-3.38-4.35-5.32-.48-2.18,0-4.83,1.69-6.77,2.9-3.63,16.44-4.35,18.85-7.73,1.45-1.93,0-4.59.97-6.53.73-1.93,2.42-4.11,4.35-5.32,1.69-1.45,5.32-.48,6.04-2.18,1.69-3.14-6.04-15.23-6.28-19.82-.24-2.42,0-4.35,1.21-5.56,1.21-1.45,4.83-2.42,6.53-1.93,1.69.48,3.87,4.11,3.87,4.11" style="fill:none; stroke-width:0px;"/></clipPath><clipPath id="uuid-678cbe35-e575-4525-aea1-192d283ba237"><rect x="492.55" y="186.39" width="21.75" height="14.5" style="fill:none; stroke-width:0px;"/></clipPath><clipPath id="uuid-5cef307d-763a-452b-a754-34d90304e67f"><path d="M499.73,186.79c13.54,8.22,12.81,10.88,11.6,12.33-.97,1.21-3.63,2.18-5.32,2.18-1.21,0-2.66-.73-3.63-1.69-.97-.97-2.18-3.63-1.93-5.32.24-1.69,1.93-3.87,3.38-4.59,1.69-.73,4.35-.73,5.8.24,1.69.97,3.38,4.83,2.9,6.77-.24,1.69-1.93,3.87-3.87,4.35-3.14.73-13.78-2.66-15.47-5.56-.97-1.93,0-5.56,1.21-7.01,1.21-1.21,5.32-1.69,5.32-1.69" style="fill:none; stroke-width:0px;"/></clipPath><clipPath id="uuid-bc21e63a-a4bc-4c7d-af7b-d12e3e692445"><rect x="485.3" y="198.47" width="36.26" height="19.34" style="fill:none; stroke-width:0px;"/></clipPath><clipPath id="uuid-615781e3-0821-4d4b-ad29-06101ef2b31f"><path d="M497.31,196.95c22.48,8.22,23.45,11.12,22.48,13.05-.97,2.42-6.28,5.56-10.63,6.04-6.04.73-20.54-2.9-23.2-6.53-1.45-2.18-.73-6.53.48-8.22,1.21-1.69,4.11-2.42,6.04-2.42,1.45,0,2.9.73,3.87,1.69,1.21,1.45,2.42,4.35,2.18,6.28-.48,1.69-2.18,4.11-3.87,5.08-1.69.73-4.83.73-6.53-.48-1.69-1.21-3.63-5.56-3.14-7.73.73-1.93,3.87-4.35,6.77-4.83,4.35-1.21,16.44.97,17.89,3.63.73,1.45-2.42,3.87-2.18,5.8.48,1.69,4.59,4.35,4.11,5.08-.73,1.21-15.71-2.66-18.61-5.8-1.69-1.69-2.18-5.08-1.45-6.77.73-1.69,5.8-3.87,5.8-3.87" style="fill:none; stroke-width:0px;"/></clipPath><clipPath id="uuid-7c003a45-50e6-491d-92d5-d0adc4b2cd8e"><rect x="509.47" y="193.64" width="60.43" height="24.17" style="fill:none; stroke-width:0px;"/></clipPath><clipPath id="uuid-26cb9380-87f6-4cb4-965f-8a8ffb913743"><path d="M515.44,205.41c35.29-6.04,42.54-12.09,46.89-11.12,2.66.48,5.32,3.87,5.8,6.04.48,1.69-.97,4.59-2.18,6.04-.97.97-2.66,1.93-4.11,1.69-2.18-.24-6.04-2.42-7.01-4.59-.97-1.69-.48-4.83.73-6.28,1.45-1.69,6.04-3.14,8.22-2.66,1.69.73,3.87,3.14,4.35,4.83.48,1.93-.24,4.35-1.69,6.53-2.66,3.63-11.84,9.91-17.4,10.88-4.35.48-7.73-3.14-12.33-3.14-5.56,0-14.5,3.87-18.85,4.11-2.18,0-3.87,0-5.32-.73-1.45-.97-2.9-3.14-3.14-4.83-.24-1.21,0-3.14.97-4.11.97-1.21,5.08-2.66,5.08-2.66" style="fill:none; stroke-width:0px;"/></clipPath><clipPath id="uuid-958cd2da-29a1-4030-a112-5b15b0c1c1c7"><rect x="536.05" y="205.73" width="21.75" height="12.09" style="fill:none; stroke-width:0px;"/></clipPath><clipPath id="uuid-540dd3b9-418d-4413-9b32-75313eba639c"><path d="M538.4,210.97c12.09.73,15.47-4.11,17.16-3.87.97,0,2.18,1.45,2.18,2.42s-1.21,2.66-1.93,2.66-3.63-2.66-3.38-3.63c.24-.73,3.63-1.21,4.35-.97.73.48,1.21,1.69.97,2.42-.73,2.18-7.01,7.01-10.63,7.73-3.38.73-9.67-.97-10.63-2.66-.48-.97,1.93-4.11,1.93-4.11" style="fill:none; stroke-width:0px;"/></clipPath><clipPath id="uuid-2f995caf-1790-48f9-9d57-0ac432710892"><rect x="562.64" y="193.64" width="4.83" height="14.5" style="fill:none; stroke-width:0px;"/></clipPath><clipPath id="uuid-4665cd76-fb77-44a1-875a-362f27bc801d"><path d="M562.33,206.13c1.93-12.09,3.38-12.33,4.11-12.09s1.69,1.93,1.45,2.66c-.24.73-3.87,1.93-4.11,1.45-.48-.48,1.21-4.35,1.69-4.35.73.24,2.66,9.18,1.93,11.84-.24,1.69-1.45,3.38-2.42,3.63-.73,0-2.66-3.14-2.66-3.14" style="fill:none; stroke-width:0px;"/></clipPath><clipPath id="uuid-844e83df-25ef-4b56-9219-707a847c5da5"><rect x="562.64" y="193.64" width="4.83" height="4.83" style="fill:none; stroke-width:0px;"/></clipPath><clipPath id="uuid-76ebfcd7-73fc-4dbf-8361-0be1e672ce19"><path d="M566.44,194.77c-1.93,3.14-3.87,2.66-4.35,1.93-.48-.73,0-2.66.73-3.14.48-.48,3.14.24,3.14.24" style="fill:none; stroke-width:0px;"/></clipPath><clipPath id="uuid-c32dc517-20bb-4d64-96de-792bed17eec8"><rect x="499.8" y="183.97" width="48.34" height="24.17" style="fill:none; stroke-width:0px;"/></clipPath><clipPath id="uuid-07a2dd89-d27d-41b4-baf0-d95b3b26d1ab"><path d="M545.17,202.26c-43.02-.73-43.51-2.42-43.26-3.38.48-1.21,4.59-3.14,7.01-3.14,2.66.24,5.32,4.83,8.7,5.56,3.14.97,8.94-1.69,10.88-.48,1.21.73,1.93,3.14,1.45,3.87-.73.97-4.83.48-7.73,0-3.63-.97-8.46-3.14-12.09-6.04-3.63-2.9-9.18-9.18-9.18-11.84,0-.97.97-1.93,1.93-2.42,1.93-.97,5.56-.48,9.18,0,4.83.73,12.81,2.18,17.89,4.59,4.11,2.18,9.67,5.8,10.39,8.22.48,1.21.24,2.66-.48,3.38-.97,1.21-2.66,2.42-4.83,2.66-4.59.48-16.68-3.87-20.79-5.8-2.18-.97-3.87-1.69-4.35-3.14-.48-1.45,0-4.59,1.21-5.56.97-.97,3.63-.24,5.8,0,2.9.24,7.25,1.21,10.63,2.66,3.38,1.69,9.43,5.8,9.18,7.49,0,1.21-3.38,3.14-4.35,2.66-.73-.24-1.21-3.38-.73-4.11.73-.73,4.35-.48,4.83.24.24.73-1.45,4.11-2.9,4.35-1.69.48-4.59-3.87-7.73-5.08-3.87-1.45-13.29-.73-14.02-2.42-.24-.97.97-3.38,2.66-3.87,3.14-1.21,16.68,3.87,19.34,6.04.97.73,1.45,2.18,1.21,2.42-.48.73-6.77-4.59-11.36-6.04-5.8-2.18-18.85-.73-21.03-3.38-1.21-1.45-.48-4.83.24-5.32.97-.48,3.14.48,4.59,1.69,2.66,1.93,5.08,7.73,8.7,10.39,3.63,2.66,12.57,3.38,13.78,5.56.73,1.21.24,2.42-.24,3.38-.97.97-2.9,1.93-4.83,2.18-2.66.24-7.98-.24-11.12-1.93-3.14-1.69-8.22-6.53-7.25-8.46,1.45-3.14,28.76-1.45,35.53-.48,2.66.48,5.32.97,5.56,1.93.48.97-2.42,3.63-2.42,3.63" style="fill:none; stroke-width:0px;"/></clipPath><clipPath id="uuid-41afbbc8-8fab-4572-8bf2-8372c1dafecd"><rect x="531.22" y="188.81" width="7.25" height="9.67" style="fill:none; stroke-width:0px;"/></clipPath><clipPath id="uuid-1683a053-7adb-4ee0-9c03-31f77b8080ee"><path d="M533.81,196.46c-4.35-4.35-4.11-6.04-3.38-6.53s3.63.48,3.87.97c.24.73-2.66,3.38-3.14,3.14s-.48-4.11.48-4.59c.97-.48,5.08,2.18,5.8,3.63.48.97.24,3.14-.24,3.63-.73.48-3.38-.24-3.38-.24" style="fill:none; stroke-width:0px;"/></clipPath><clipPath id="uuid-11440f49-bcb7-41f5-a609-82a9c2e85ffe"><rect x="485.3" y="162.22" width="4.83" height="4.83" style="fill:none; stroke-width:0px;"/></clipPath><clipPath id="uuid-e18b6af8-5788-4dac-b88c-cefe72b58f66"><path d="M490.78,164.56c-2.18,3.14-4.11,2.66-4.59,1.93-.24-.73,0-2.66.73-3.14.48-.48,3.14.24,3.14.24" style="fill:none; stroke-width:0px;"/></clipPath><clipPath id="uuid-b881db4a-294e-4cc5-951d-61871b386508"><rect x="482.88" y="162.22" width="16.92" height="16.92" style="fill:none; stroke-width:0px;"/></clipPath><clipPath id="uuid-e74e7f3c-9411-43b1-a774-f8966cc4ff2a"><path d="M484.98,161.42c12.57,7.25,14.74,12.57,14.26,14.74-.24,1.45-2.18,2.9-2.9,2.66-.73,0-2.18-3.87-1.69-4.35.48-.73,3.87-.24,4.35.73.24.73-.73,3.14-1.45,3.38-.73.48-2.18,0-3.14-.73-1.69-1.45-1.93-6.77-4.11-8.94-1.69-1.93-7.01-2.18-7.49-3.63-.24-1.21,2.18-3.87,2.18-3.87" style="fill:none; stroke-width:0px;"/></clipPath><clipPath id="uuid-f60db3ee-e15f-4723-9f88-4218d22d22ac"><rect x="478.05" y="154.97" width="19.34" height="14.5" style="fill:none; stroke-width:0px;"/></clipPath><clipPath id="uuid-c7a343e8-fee4-4492-a7a3-ccadf3e84d89"><path d="M493.68,168.18c-10.15-4.35-15.23-9.18-14.99-11.12.24-.97,3.87-2.42,4.59-1.93.73.24.73,3.14.24,3.87-.73.73-3.38.73-3.87,0-.73-.48-.97-2.66-.48-3.14.48-.97,2.9-1.45,3.87-.97,1.21.73.24,4.35,1.69,5.8,2.18,2.18,10.63,1.93,12.09,3.63.73.97.73,2.66,0,3.38-.48.73-3.14.48-3.14.48" style="fill:none; stroke-width:0px;"/></clipPath><clipPath id="uuid-fcbf029f-ec8e-4adc-a444-469056acb804"><rect x="480.46" y="159.8" width="4.83" height="4.83" style="fill:none; stroke-width:0px;"/></clipPath><clipPath id="uuid-0145fbd4-df75-48ca-92d9-eb3b8c25be16"><path d="M483.29,159.97c1.93,3.63-.97,4.83-1.69,4.35-.48-.24-.48-3.63,0-3.87.73-.48,3.63.73,3.87,1.45,0,.73-2.66,2.9-3.38,2.9-.97-.24-2.18-1.93-1.93-2.66,0-.97,2.42-2.42,2.42-2.42" style="fill:none; stroke-width:0px;"/></clipPath><clipPath id="uuid-6fd01bb2-713e-4b7f-8b60-a17917da0928"><rect x="478.05" y="152.55" width="12.09" height="14.5" style="fill:none; stroke-width:0px;"/></clipPath><clipPath id="uuid-eb936659-4ed4-4b68-9abf-72f14db4f482"><path d="M487.4,166.25c-7.25-4.59-9.18-9.91-8.7-12.09.24-1.45,1.69-3.14,2.42-2.9.73,0,2.66,3.38,2.18,4.11-.24.48-3.63.48-4.11-.24-.73-.48-.48-2.42.24-3.14.48-.48,2.18-.97,2.9-.48,1.45.73,1.21,5.8,2.66,7.73,1.21,1.69,4.35,2.42,4.59,3.63.24.97-2.18,3.38-2.18,3.38" style="fill:none; stroke-width:0px;"/></clipPath><clipPath id="uuid-e3e7d50f-c2cd-468b-a45a-5c9f2a4b905c"><rect x="473.21" y="145.3" width="14.5" height="19.34" style="fill:none; stroke-width:0px;"/></clipPath><clipPath id="uuid-c1e3eb64-9887-413e-a222-e6b83fde27c3"><path d="M486.43,165.28c-12.09-8.22-12.33-14.74-11.6-17.16.48-1.45,2.18-2.9,2.9-2.66.73,0,2.42,3.87,1.93,4.35-.48.73-3.87.24-4.35-.48-.48-.73-.24-2.66.48-3.14.73-.73,2.9-.73,3.87.24,1.69,1.45-.24,8.94,1.45,11.36,1.69,2.42,7.25,2.66,7.73,4.11.24,1.21-2.42,3.38-2.42,3.38" style="fill:none; stroke-width:0px;"/></clipPath><clipPath id="uuid-c7458c2a-a9ce-4aca-a597-3390c5006c2b"><rect x="475.63" y="116.3" width="38.67" height="48.34" style="fill:none; stroke-width:0px;"/></clipPath><clipPath id="uuid-ca2c1ae1-b95c-4050-aa9e-3379c59084d0"><path d="M496.34,161.42c6.28-15.47,8.7-15.23,9.67-14.02,1.69,1.93-.73,13.05-2.18,15.71-.48.97-1.21,1.69-1.93,1.69-.97.24-2.66-.48-3.38-1.69-1.69-2.66.73-9.67-1.21-14.99-2.42-7.73-16.92-24.17-15.71-25.62.73-.73,4.83,1.45,6.77,3.14,2.9,2.42,5.32,7.01,7.73,11.12,2.66,4.83,7.49,12.57,7.01,15.95-.24,1.69-1.69,3.38-2.9,3.63-1.45.24-3.63-2.18-5.56-4.59-3.63-4.35-12.57-17.4-11.84-21.03.24-1.45,2.18-2.9,3.87-2.66,3.87.24,12.57,14.99,17.64,17.89,3.14,1.93,7.49.97,8.22,2.66.48,1.21-.48,4.35-1.45,4.83-.97.24-2.9-.97-4.11-2.18-1.93-1.69-5.08-6.53-5.32-9.18-.24-1.69,0-3.63.97-4.59,1.21-.97,4.35-1.69,5.32-.73,1.93,1.69,1.69,15.47-.24,16.44-.97.48-4.83-1.93-5.56-4.11-1.21-3.63,7.25-14.5,5.32-17.4-1.93-2.66-15.71-.24-15.71-.97,0-.24,2.9-1.69,4.59-1.45,2.9.73,7.98,5.8,9.91,7.98,1.21,1.45,2.18,2.66,2.18,3.63-.24.97-1.93,2.66-2.9,2.42-2.18-.24-7.98-10.15-7.25-12.33.24-.97,1.45-1.45,2.66-1.45,2.18-.24,7.49,1.93,8.94,3.87.97,1.45,1.21,3.63.24,5.56-1.45,3.14-9.91,9.91-12.57,9.67-.97,0-1.93-1.45-2.18-2.18-.24-1.21.48-2.66,1.45-3.87,1.45-1.93,5.08-5.32,7.25-5.56,1.45-.24,3.38.97,3.63,1.69.24.97-1.93,3.87-2.9,3.87-.73-.24-2.18-4.11-1.69-4.83.24-.73,2.42-.97,3.38-.48.73.24,1.45,1.93,1.21,3.14-.24,2.18-6.28,7.73-8.7,8.22-1.21.24-2.9-.73-3.38-1.69-.48-.97-.24-2.66.48-4.11,1.45-2.66,9.43-8.94,10.63-8.46.48.24.24,3.14-.48,3.38-1.21.48-8.22-4.59-8.22-6.04,0-.97,2.42-2.42,3.63-2.18s2.42,2.42,3.38,4.11c1.45,1.93,3.87,5.8,3.38,7.25-.48,1.21-2.18,2.42-3.63,2.42-3.14-.24-11.6-7.98-14.02-11.12-1.21-1.93-2.42-3.63-1.69-4.83.73-1.45,4.59-2.18,7.73-2.42,4.35,0,13.78-.24,15.95,3.38,3.14,4.83-3.87,25.62-6.53,27.55-.97.73-2.18.48-2.9,0-1.21-1.45-.97-7.49-.73-10.39.24-2.18.73-5.32,1.69-5.56.73-.48,2.18.73,3.14,1.93,1.93,1.93,6.53,8.22,5.56,9.91-.73,1.45-6.53,1.69-9.91.24-6.04-2.42-18.13-15.71-20.06-20.54-.97-1.93-.73-4.35,0-4.83.97-.73,3.87.73,5.8,2.42,4.35,3.87,14.26,18.61,14.02,22.96-.24,2.18-2.18,4.35-3.38,4.11-2.42-.24-5.8-13.05-9.43-18.37-3.63-4.83-10.15-9.18-12.09-12.81-.97-1.69-1.69-3.38-1.21-4.59.48-1.45,2.18-2.9,3.63-3.38,1.45-.24,3.14,0,4.83,1.21,4.59,3.38,14.5,18.85,16.92,26.83,1.69,5.32,1.93,13.05.48,14.99-.97,1.21-3.14,1.69-3.87.97-1.21-1.21.48-12.57,2.42-14.02,1.21-.97,4.11-.73,4.83.48,1.21,1.93-3.14,13.54-5.08,15.47-.97.97-2.42,1.45-3.38.97-.48-.24-1.21-2.42-1.21-2.42" style="fill:none; stroke-width:0px;"/></clipPath><clipPath id="uuid-5ee044dd-b9c5-4678-8005-6729126df7aa"><rect x="485.3" y="106.63" width="16.92" height="26.59" style="fill:none; stroke-width:0px;"/></clipPath><clipPath id="uuid-6ad12df7-f80f-4eaf-b919-5143bc14f55b"><path d="M486.67,116.7c8.7-9.91,11.12-9.18,12.09-7.49,1.69,3.38-1.45,18.61-3.38,21.75-.73,1.21-1.69,1.93-2.66,1.93-.97.24-1.93-.24-2.66-.97-1.69-1.93-3.87-8.7-3.63-11.12.24-1.21,1.21-2.66,2.18-2.9.73-.24,2.9.48,3.14,1.21.48.97-.97,4.11-1.69,4.35-.97.24-3.63-2.42-3.38-3.38,0-.73,3.63-1.93,4.83-1.21,2.18,1.21,4.35,11.84,3.14,13.29-.73.73-3.38.48-4.35-.24-1.45-1.45-1.69-5.8-1.21-8.7.24-3.38,2.18-8.22,4.11-10.15,1.21-1.45,4.35-2.66,4.59-2.42.73.73-4.35,9.18-7.01,10.39-1.93.97-5.08.73-5.8,0-.48-.73,1.69-4.35,1.69-4.35" style="fill:none; stroke-width:0px;"/></clipPath><clipPath id="uuid-81f9d9a3-f6a2-4a29-824c-75960966d116"><rect x="482.88" y="116.3" width="4.83" height="4.83" style="fill:none; stroke-width:0px;"/></clipPath><clipPath id="uuid-b8d42e9f-5ff0-45e0-ba8e-95d01b684e1e"><path d="M488.85,118.15c-1.93,3.38-3.87,2.66-4.35,1.93s0-2.66.48-3.14c.73-.48,3.14.24,3.14.24" style="fill:none; stroke-width:0px;"/></clipPath><clipPath id="uuid-2bb1a786-c48f-401b-bc32-83df19fbf93a"><rect x="487.71" y="94.54" width="12.09" height="19.34" style="fill:none; stroke-width:0px;"/></clipPath><clipPath id="uuid-f3482511-6a96-479d-8b85-504b8849bcc0"><path d="M494.41,109.69c.48-11.36,2.9-1.45,1.93.73-.48,1.45-1.93,2.42-2.9,2.42s-2.18-.97-2.66-2.18c-.97-2.18-.24-10.15.97-12.57.48-1.21,1.69-2.18,2.42-2.42.97,0,2.9,1.21,2.9,1.93.24.97-1.69,3.87-2.66,3.87s-2.9-2.9-2.66-3.87c.24-.97,2.18-1.93,3.14-1.69.97,0,1.93.97,2.42,2.42.97,2.42.48,9.91-.97,12.09-.73,1.45-1.93,2.66-2.9,2.42-1.93-.48-4.59-8.22-4.83-11.12-.24-2.18,0-3.87.97-5.32,1.21-1.45,5.32-2.9,7.01-2.42,1.69.24,2.9,1.69,3.63,3.63.97,2.66.48,11.36-1.21,12.57-1.21.97-4.59-.48-4.59-.48" style="fill:none; stroke-width:0px;"/></clipPath><clipPath id="uuid-09d6de46-f4b3-466d-a292-a647c92c0e29"><rect x="494.96" y="94.54" width="4.83" height="4.83" style="fill:none; stroke-width:0px;"/></clipPath><clipPath id="uuid-9b97afa0-fd32-4640-8cf5-0a4cf3eb963f"><path d="M500.69,95.43c-2.18,3.38-4.11,2.66-4.35,2.18-.48-.73-.24-2.66.48-3.14s3.14,0,3.14,0" style="fill:none; stroke-width:0px;"/></clipPath><clipPath id="uuid-c120e959-e6a5-4bf1-8dc9-b8ecb7032c18"><rect x="497.38" y="82.46" width="14.5" height="9.67" style="fill:none; stroke-width:0px;"/></clipPath><clipPath id="uuid-8ffe3977-dcd3-44d1-a24d-659b638fd4a7"><path d="M498.28,89.87c2.42-5.8,7.73-8.22,9.91-7.73,1.21.24,3.14,2.18,2.9,2.9-.24.48-3.87,1.69-4.35,1.21s.24-3.87.97-4.11c.97-.24,3.38,1.45,3.38,2.42,0,1.93-6.28,7.25-8.7,7.49-1.45,0-4.11-2.18-4.11-2.18" style="fill:none; stroke-width:0px;"/></clipPath><clipPath id="uuid-270e16cb-bd9c-430f-b9a7-fa07b284faf3"><rect x="494.96" y="84.87" width="9.67" height="9.67" style="fill:none; stroke-width:0px;"/></clipPath><clipPath id="uuid-6ae51f4d-6158-4037-8078-959d895bec00"><path d="M504.08,88.18c-4.83,5.56-6.28,4.83-6.53,4.11-.24-.73,1.69-3.63,2.42-3.63.73.24,2.18,3.38,1.69,3.87-.48.48-4.11-.48-4.59-1.45-.48-1.45,2.9-6.53,4.59-7.01.97-.48,2.9,0,3.14.73.48.73-.73,3.38-.73,3.38" style="fill:none; stroke-width:0px;"/></clipPath><clipPath id="uuid-e208368f-66f2-4286-830c-2b1277842b89"><rect x="507.05" y="72.79" width="48.34" height="24.17" style="fill:none; stroke-width:0px;"/></clipPath><clipPath id="uuid-d3604617-be8e-43e9-85dc-301e48023f56"><path d="M508.91,79.96c9.43-7.49,12.57-7.73,15.23-7.01,3.38.48,7.49,2.9,9.67,5.32,1.93,1.69,3.87,4.35,3.87,6.28-.24,1.69-1.69,3.87-3.38,4.35-1.69.73-5.08-.24-7.25-1.45-2.9-1.21-6.28-4.35-7.98-6.77-1.21-1.69-2.42-3.87-2.18-5.08.24-.73,1.21-1.21,2.18-1.21,1.21-.24,3.14.24,5.08,1.21,3.38,1.69,7.49,7.73,11.6,9.91,3.14,1.45,9.67.73,10.39,2.18.24.97-.97,2.9-2.18,3.63-2.66,1.45-14.02-.48-14.26-1.45,0-.73,2.9-2.18,5.32-2.66,4.35-.97,15.95-1.45,19.09.48,1.69.73,2.66,2.42,2.42,3.38s-1.93,2.42-2.9,2.42c-.97-.24-2.9-2.18-2.9-3.14s2.42-2.9,3.14-2.9c.97.24,2.66,3.87,1.93,5.08-1.93,2.66-22.72,2.42-26.59-.24-1.93-1.21-2.66-3.87-2.42-5.08,0-.97.73-1.69,1.93-2.18,2.9-.97,15.71,0,16.92,1.93.73,1.21-.48,3.63-1.69,4.35-2.18,1.21-7.98-.24-11.36-1.93-3.63-1.69-7.98-5.08-9.91-7.98-1.45-1.93-2.9-6.04-2.18-6.53.97-.97,13.05,6.53,13.05,8.46.24.73-.97,1.45-1.69,1.69-1.93,0-6.53-7.01-9.91-7.25-3.63,0-8.46,6.28-10.88,6.53-1.21,0-2.18-.48-2.66-.97-.48-.73.48-3.38.48-3.38" style="fill:none; stroke-width:0px;"/></clipPath><clipPath id="uuid-1777dfe5-b72d-4360-9217-c2f858be5027"><rect x="511.88" y="70.37" width="12.09" height="7.25" style="fill:none; stroke-width:0px;"/></clipPath><clipPath id="uuid-265fa4c3-9f35-46c5-94d0-f436cf06300a"><path d="M517.85,76.34c-4.83.48-3.38-2.42-2.66-2.66.73,0,2.9,2.66,2.66,3.14-.24.48-4.11.97-4.83,0s.73-5.08,1.93-6.28c.97-.97,3.38-1.21,4.83-.73,1.21.24,3.14,3.38,3.14,3.38" style="fill:none; stroke-width:0px;"/></clipPath><clipPath id="uuid-be2da55e-734a-43fa-ab2b-d20834d85dd9"><rect x="536.05" y="77.62" width="12.09" height="7.25" style="fill:none; stroke-width:0px;"/></clipPath><clipPath id="uuid-a781d93f-bdb0-4435-b078-0c814f9cddb1"><path d="M538.4,79.96c7.73-1.21,8.46.48,8.22,1.21s-2.42,2.18-2.9,1.69c-.73-.24-1.45-3.87-.97-4.35.73-.24,4.11,1.45,3.87,2.18,0,1.21-6.28,4.35-8.22,4.11-1.21-.24-2.42-1.45-2.42-2.18,0-.97,2.42-2.66,2.42-2.66" style="fill:none; stroke-width:0px;"/></clipPath><clipPath id="uuid-c7acaef6-0a64-45c8-b38d-a0a09e13c7b6"><rect x="536.05" y="82.46" width="21.75" height="7.25" style="fill:none; stroke-width:0px;"/></clipPath><clipPath id="uuid-48b78de2-86bb-48b3-8bea-2c139fe60e20"><path d="M538.64,82.38c18.85,1.93,19.34,3.14,19.34,3.87-.24.73-1.69,2.42-2.42,2.42-.97,0-2.9-2.66-2.66-3.38.24-.97,2.66-1.93,3.38-1.69.97.24,1.93,1.93,1.69,2.9-.24.73-2.18,2.18-3.14,2.18-.73-.24-2.18-2.42-1.93-3.14,0-.97,1.45-2.18,2.42-2.18.73.24,2.66,2.9,2.66,2.66l-1.45-2.42c-.24.24,1.69,2.42,1.21,3.14-.24.97-1.45,1.45-2.9,1.93-3.14.73-14.74,0-17.16-1.69-.97-.73-1.45-1.69-1.45-2.42.24-.97,2.42-2.18,2.42-2.18" style="fill:none; stroke-width:0px;"/></clipPath><clipPath id="uuid-5c89281a-7528-47b6-9096-847ac15b9d0c"><rect x="540.89" y="77.62" width="7.25" height="14.5" style="fill:none; stroke-width:0px;"/></clipPath><clipPath id="uuid-b7561beb-e3b0-43d0-93f7-4d1101f4ec8b"><path d="M545.89,79.24c1.69,10.15.73,11.36,0,11.36s-3.14-2.9-2.9-3.38c.24-.73,4.11-.73,4.59,0,.48.48,0,2.42-.73,2.9s-2.18.73-2.9.24c-1.69-1.21-3.38-7.25-3.14-9.91,0-1.69.97-3.87,1.93-3.87.73-.24,3.14,2.66,3.14,2.66" style="fill:none; stroke-width:0px;"/></clipPath><clipPath id="uuid-59932b32-6fd9-440b-a504-33fb71882eef"><rect x="533.64" y="191.22" width="12.09" height="12.09" style="fill:none; stroke-width:0px;"/></clipPath><clipPath id="uuid-2bb10770-f1c7-4a4b-96ce-91727248fb4c"><path d="M542.51,204.2c-10.63-8.7-9.67-11.84-8.46-12.09,1.69-.73,8.7,4.35,8.94,6.28.24,1.45-1.93,4.35-2.66,4.11-.73,0-1.93-4.11-1.45-4.59.73-.48,4.59,1.21,4.59,1.93s-3.38,2.66-4.35,2.18c-1.69-.73-3.63-7.98-2.9-8.46.97-.73,8.7,4.83,8.94,7.01.24,1.21-2.66,3.63-2.66,3.63" style="fill:none; stroke-width:0px;"/></clipPath><clipPath id="uuid-ccf519f2-b45e-4b91-a6d8-d3813d8904fb"><rect x="453.88" y="60.7" width="4.83" height="9.67" style="fill:none; stroke-width:0px;"/></clipPath><clipPath id="uuid-29d1ed61-48b9-45cd-b853-1dabfc1c503c"><path d="M458.88,62.56c-1.93,6.77-5.08,4.83-4.83,4.11,0-.73,2.9-2.42,3.38-1.93.73.24,1.21,3.63.48,3.87-.48.48-3.38-.73-3.87-1.69-.73-1.45,0-5.8.97-6.28.73-.48,3.87,1.93,3.87,1.93" style="fill:none; stroke-width:0px;"/></clipPath><clipPath id="uuid-b632c1d6-86ec-4ee7-9d85-d0b0d976af72"><rect x="453.88" y="65.54" width="4.83" height="4.83" style="fill:none; stroke-width:0px;"/></clipPath><clipPath id="uuid-2a1baf53-61b5-4779-ab33-99f8bbd83e0b"><path d="M454.77,67.15c3.38-2.42,4.83.24,4.59.97-.24.73-3.38,1.21-4.11.73-.48-.48.24-3.63.97-3.87s3.38,1.93,3.38,2.9c0,.73-1.45,2.18-2.18,2.42-.97,0-2.66-1.93-2.66-1.93" style="fill:none; stroke-width:0px;"/></clipPath><clipPath id="uuid-2a28f1c1-8256-4e45-abbf-e63f4866c0cd"><rect x="456.29" y="63.12" width="4.83" height="4.83" style="fill:none; stroke-width:0px;"/></clipPath><clipPath id="uuid-7e1260ed-0d3d-4711-85ac-2a33a9b73ba3"><path d="M460.57,63.77c-2.18,3.14-4.11,2.66-4.59,1.93-.24-.73,0-2.66.73-3.14.48-.48,3.14.24,3.14.24" style="fill:none; stroke-width:0px;"/></clipPath><clipPath id="uuid-313c69ef-71e0-4e9f-abc1-11281d8ac61b"><rect x="446.62" y="63.12" width="4.83" height="4.83" style="fill:none; stroke-width:0px;"/></clipPath><clipPath id="uuid-0e9b3175-24a1-4a08-84e0-c22c4a29484a"><path d="M451.14,65.7c-2.18,3.14-4.11,2.66-4.35,1.93-.48-.73-.24-2.66.48-3.14s3.14,0,3.14,0" style="fill:none; stroke-width:0px;"/></clipPath><clipPath id="uuid-6031dab3-2f89-418f-a08d-0892da4b5be4"><rect x="446.62" y="63.12" width="4.83" height="4.83" style="fill:none; stroke-width:0px;"/></clipPath><clipPath id="uuid-2b6d0bec-5283-47a6-94c4-60f10e9867e8"><path d="M451.14,65.22c-1.93,3.14-3.87,2.66-4.35,1.93s0-2.66.48-3.14c.73-.48,3.38,0,3.38,0" style="fill:none; stroke-width:0px;"/></clipPath><clipPath id="uuid-b28d4adc-393a-4920-ac7d-b1920033f441"><rect x="446.62" y="63.12" width="4.83" height="7.25" style="fill:none; stroke-width:0px;"/></clipPath><clipPath id="uuid-4f696a11-67eb-40d4-a273-50daa2211620"><path d="M451.14,66.67c-3.87,1.93-4.59-1.21-4.11-1.69s4.11.73,4.11,1.69c.24.24-2.18,2.42-3.14,2.18-.73,0-2.18-2.42-2.18-3.63,0-.97,1.45-2.9,2.42-3.14.73-.24,2.9,1.45,2.9,1.45" style="fill:none; stroke-width:0px;"/></clipPath><clipPath id="uuid-04b75349-d479-4910-bacd-c819e89d7c08"><rect x="461.13" y="51.04" width="33.84" height="36.26" style="fill:none; stroke-width:0px;"/></clipPath><clipPath id="uuid-d44a2c4b-0c47-415d-b97e-d39162e6f80e"><path d="M470.96,58.93c-4.59,7.01.73,11.6.24,13.29-.48,1.21-3.63,2.66-4.83,1.93-2.18-1.21-4.59-14.99-2.42-18.37,1.69-2.66,7.49-3.63,10.15-3.14,2.42.73,4.59,2.9,5.8,5.56,1.69,3.63,2.42,12.81.97,15.47-.73,1.45-2.42,2.66-3.63,2.42-1.21,0-2.66-1.93-3.63-3.87-1.69-2.42-4.35-8.46-3.63-10.88.24-1.45,2.18-2.9,3.14-2.9.97.24,2.18,2.18,2.42,3.63.48,2.42-3.87,7.49-2.66,9.91,1.45,3.14,11.12,4.11,13.05,6.28.97.97,1.45,2.18,1.21,3.14-.24.97-1.93,1.93-3.14,2.18-2.42,0-6.77-4.83-9.67-5.56-2.66-.73-6.77,1.69-7.73.48-.97-1.69,3.14-10.39,6.04-12.33,2.18-1.69,5.8-2.42,7.98-1.21,3.14,1.45,4.59,8.7,7.01,11.6,1.93,2.18,5.56,2.66,6.04,4.59.73,1.69-.24,4.35-.97,5.32-.73.73-1.69.97-2.9.73-2.66-.48-9.91-4.59-10.88-6.77-.73-1.21-.48-2.9.24-3.63s2.66-1.21,3.63-.48c.73.48,1.69,3.14.97,4.11-.48.73-4.35.73-4.83.24-.48-.73,1.21-4.59,2.66-4.83,1.69-.24,7.01,4.35,7.73,6.04.24.97-.24,2.18-.73,2.42-.73.24-2.9-1.45-4.35-2.9-2.42-2.18-5.32-11.12-7.73-11.12-2.18,0-3.87,7.73-6.04,8.7-1.21.48-3.14.24-3.87-.48-.48-.73-.73-2.42-.24-3.38.73-1.45,4.35-3.14,6.53-3.38,2.42-.24,5.32,1.21,7.49,2.66,2.66,1.45,7.01,5.32,6.77,7.01-.24.97-2.42,1.93-4.11,1.93-3.63-.24-13.78-5.56-15.71-9.18-1.45-2.42-.48-5.8.24-7.73.97-1.69,2.9-3.63,4.35-3.87,1.45,0,3.38,1.21,4.35,2.66,1.21,1.45,1.93,4.83,1.45,6.28-.73,1.45-3.38,2.9-4.83,2.66-1.45-.24-2.9-2.9-3.38-4.83-.73-2.42-.48-7.73.73-9.18.73-1.21,2.42-1.93,3.63-1.45,2.42,1.21,7.98,14.5,6.53,16.19-.48.97-3.63.97-4.83,0-1.69-1.69.24-9.91-.97-12.81-.73-1.93-1.93-3.63-3.14-3.87-.73-.48-1.93-.24-2.42.48-1.21,1.69,3.38,12.81,2.18,15.71-.48,1.21-1.45,2.18-2.66,2.18s-3.38-1.93-4.35-4.11c-1.69-2.66-2.66-8.7-1.93-12.09.73-2.42,2.9-5.32,4.83-6.04,1.69-.73,5.32-.24,6.04.73.24.97-2.18,3.87-2.18,3.87" style="fill:none; stroke-width:0px;"/></clipPath><clipPath id="uuid-878bdb31-a18d-4a1c-ac6d-cf7df9b2e08d"><rect x="473.21" y="70.37" width="16.92" height="19.34" style="fill:none; stroke-width:0px;"/></clipPath><clipPath id="uuid-2301ac71-eb75-40cc-8170-4f296e03db3c"><path d="M488.37,88.66c-11.36-8.46-14.74-13.05-14.5-15.23.24-1.45,2.42-3.14,3.14-2.9.73,0,1.69,4.11,1.21,4.59-.73.48-4.11-.48-4.11-1.45-.24-.73,1.45-3.14,2.66-3.38,2.9,0,13.29,11.12,13.54,14.5.24,1.69-1.93,3.87-1.93,3.87" style="fill:none; stroke-width:0px;"/></clipPath><clipPath id="uuid-7422e5dd-ffca-4f24-a838-4382093281af"><rect x="461.13" y="60.7" width="14.5" height="12.09" style="fill:none; stroke-width:0px;"/></clipPath><clipPath id="uuid-572997a4-f472-4ca1-98d9-d22f0807df98"><path d="M467.1,62.32c-2.42,5.32-3.14,3.14-2.66,2.42.97-.97,8.46.24,9.91,1.69.73.97.73,2.9.24,3.63s-2.18,1.21-2.9.97c-.73-.48-1.21-4.59-.48-4.83.48-.48,3.87,1.93,3.87,2.66s-3.38,2.18-3.87,1.93c-.73-.48-.24-4.59.48-4.83s3.38,1.93,3.38,2.9c0,.73-1.45,1.93-2.66,2.18-2.42.73-10.39-.24-11.6-2.42-1.21-1.93.97-7.98,2.42-8.46.97-.48,3.87,2.18,3.87,2.18" style="fill:none; stroke-width:0px;"/></clipPath><clipPath id="uuid-4fb3e721-8122-43f6-811f-01fd18fff222"><rect x="465.96" y="51.04" width="4.83" height="4.83" style="fill:none; stroke-width:0px;"/></clipPath><clipPath id="uuid-5ebf08f1-f51c-4c7b-bf2c-abfb764803e4"><path d="M470.72,52.65c-2.18,3.38-3.87,2.66-4.35,2.18-.48-.73,0-2.66.48-3.14.73-.73,3.14,0,3.14,0" style="fill:none; stroke-width:0px;"/></clipPath><clipPath id="uuid-3f5b89db-ec14-4d55-9cd2-88d548b16c3a"><rect x="478.05" y="152.55" width="16.92" height="14.5" style="fill:none; stroke-width:0px;"/></clipPath><clipPath id="uuid-fed82312-ccdb-41f7-8c00-09f389c68099"><path d="M484.26,156.82c1.45,5.56,8.7,4.11,9.91,5.56.73.73.48,3.14,0,3.87-.73.48-2.9.73-3.38,0-.48-.48,0-4.35.73-4.59s3.38,1.93,3.38,2.66c.24.73-.48,1.69-1.21,2.18-2.18.97-11.6-.24-13.78-2.66-1.45-1.93-1.21-6.77-.24-8.22.48-.97,2.18-1.45,2.9-1.21s1.69,2.42,1.69,2.42" style="fill:none; stroke-width:0px;"/></clipPath><clipPath id="uuid-aebed71d-fa44-4f03-9042-a0259b7ca623"><rect x="528.8" y="191.22" width="14.5" height="12.09" style="fill:none; stroke-width:0px;"/></clipPath><clipPath id="uuid-8fefd1cc-0ab4-45fd-91e8-b481981bdd42"><path d="M541.78,201.54c-12.33-8.7-10.15-11.36-9.43-11.12.73,0,2.18,3.14,1.69,3.87-.24.48-3.63.73-4.11,0-.48-.48-.48-2.42,0-3.14.48-.48,1.69-.97,3.14-.73,2.66.48,10.88,5.08,11.36,7.25.24,1.21-2.66,3.87-2.66,3.87" style="fill:none; stroke-width:0px;"/></clipPath><clipPath id="uuid-6166f12f-125b-4867-9951-d639b6b888cb"><rect x="499.8" y="169.47" width="9.67" height="14.5" style="fill:none; stroke-width:0px;"/></clipPath><clipPath id="uuid-d5da962f-37ca-452e-8339-91de0c22182a"><path d="M502.38,179.79c-.73-8.94,2.66-6.53,2.42-6.04,0,.73-3.63,1.69-4.35,1.21s-.73-2.42-.24-3.14c.73-.73,2.66-.97,3.87-.48,1.69.97,4.83,6.28,4.35,8.46-.24,1.93-3.38,4.35-4.83,4.59-.97,0-1.93-.97-2.18-1.69-.48-.73.97-2.9.97-2.9" style="fill:none; stroke-width:0px;"/></clipPath></defs><g id="uuid-67a142a8-69f7-4f69-897d-cfeb7dd913d8"><path d="M712.21,104.47c0,2.44,1.49,3.66,4.47,3.66v3.66h-31.3v-3.66c.95,0,1.79-.3,2.54-.91.74-.61,1.12-1.52,1.12-2.74V23.58h-33.54c-1.22,0-2.41.34-3.56,1.02-1.15.68-1.73,1.97-1.73,3.86h-3.66V0h3.66c0,1.9.58,3.19,1.73,3.86,1.15.68,2.34,1.02,3.56,1.02h90.24c1.22,0,2.4-.34,3.56-1.02,1.15-.68,1.73-1.96,1.73-3.86h3.66v28.45h-3.66c0-1.9-.58-3.18-1.73-3.86-1.15-.68-2.34-1.02-3.56-1.02h-33.54v80.89Z" style="fill:#002a86; stroke-width:0px;"/><path d="M841.88,3.66c7.45,0,15.04,1.12,22.76,3.35,7.72,2.24,14.77,5.59,21.14,10.06,6.37,4.47,11.58,10.13,15.65,16.97,4.07,6.84,6.1,14.94,6.1,24.29s-2.03,17.45-6.1,24.29c-4.06,6.84-9.28,12.5-15.65,16.97-6.37,4.47-13.42,7.72-21.14,9.76-7.72,2.03-15.31,3.05-22.76,3.05s-15.04-1.02-22.76-3.05c-7.72-2.03-14.77-5.28-21.14-9.76-6.37-4.47-11.58-10.13-15.65-16.97-4.06-6.84-6.1-14.94-6.1-24.29s2.03-17.44,6.1-24.29c4.07-6.84,9.28-12.5,15.65-16.97,6.37-4.47,13.41-7.82,21.14-10.06,7.72-2.24,15.31-3.35,22.76-3.35ZM841.88,22.36c-5.15,0-10.3.81-15.45,2.44-5.15,1.63-9.79,3.96-13.92,7.01-4.13,3.05-7.49,6.81-10.06,11.28-2.58,4.47-3.86,9.55-3.86,15.24s1.29,10.77,3.86,15.24c2.57,4.47,5.93,8.23,10.06,11.28,4.13,3.05,8.77,5.39,13.92,7.01,5.15,1.63,10.3,2.44,15.45,2.44s10.29-.81,15.45-2.44c5.15-1.63,9.79-3.96,13.92-7.01,4.13-3.05,7.49-6.81,10.06-11.28,2.57-4.47,3.86-9.55,3.86-15.24s-1.29-10.77-3.86-15.24c-2.58-4.47-5.93-8.23-10.06-11.28-4.13-3.05-8.77-5.39-13.92-7.01-5.15-1.63-10.3-2.44-15.45-2.44Z" style="fill:#002a86; stroke-width:0px;"/><path d="M958.75,8.54c-2.03,0-3.05,1.29-3.05,3.86,0,.68.1,1.49.31,2.44.2.95.71,2.51,1.52,4.67l21.75,56.5h.41l21.54-57.32c.68-1.76,1.12-3.08,1.32-3.96.2-.88.3-1.66.3-2.34,0-2.57-.88-3.86-2.64-3.86v-3.66h34.75v3.66c-.95,0-1.63.34-2.03,1.02-.41.68-.61,1.42-.61,2.24,0,1.36.68,3.66,2.03,6.91l21.75,57.32h.41l21.95-58.54c.95-2.03,1.42-3.86,1.42-5.49,0-.81-.34-1.59-1.02-2.34-.68-.74-1.49-1.12-2.44-1.12v-3.66h30.08v3.66c-1.49,0-2.61.81-3.35,2.44-.75,1.63-1.59,3.66-2.54,6.1l-29.27,77.64c-.81,2.17-1.52,4.06-2.13,5.69-.61,1.63-.91,2.98-.91,4.06,0,.95.34,1.8,1.02,2.54.68.75,1.63,1.12,2.85,1.12v3.66h-32.11v-3.66c.81-.27,1.66-.68,2.54-1.22.88-.54,1.32-1.29,1.32-2.24,0-1.08-.24-2.3-.71-3.66-.48-1.35-1.25-3.25-2.34-5.69l-23.37-59.96h-.41l-22.15,58.74c-2.03,5.28-3.05,8.61-3.05,9.96,0,2.17.88,3.53,2.64,4.06v3.66h-31.5v-3.66c.81,0,1.63-.2,2.44-.61s1.22-1.08,1.22-2.03c0-1.08-.24-2.24-.71-3.46-.48-1.22-.98-2.51-1.52-3.86l-32.52-83.94c-.54-1.49-1.12-2.74-1.73-3.76-.61-1.02-1.59-1.66-2.95-1.93v-3.66h31.5v3.66Z" style="fill:#002a86; stroke-width:0px;"/><path d="M1230.69,26.83c0-1.49-.58-2.61-1.73-3.35-1.15-.74-3.15-1.12-6-1.12h-65.85v25.2h39.84c2.71,0,4.81-.37,6.3-1.12,1.49-.74,2.24-2.67,2.24-5.79h3.66v31.71h-3.66c0-3.12-.75-5.11-2.24-6-1.49-.88-3.59-1.32-6.3-1.32h-39.84v28.05h67.88c2.03,0,3.69-.47,4.98-1.42,1.29-.95,1.93-2.24,1.93-3.86h3.66v27.85h-3.66c0-2.03-.64-3.19-1.93-3.46-1.29-.27-2.95-.41-4.98-.41h-94.71v-3.66c.95,0,1.79-.3,2.54-.91.74-.61,1.12-1.52,1.12-2.74V12.19c0-1.22-.38-2.13-1.12-2.74-.75-.61-1.59-.91-2.54-.91v-3.66h92.68c2.85,0,4.84-.44,6-1.32,1.15-.88,1.73-2.06,1.73-3.56h3.66v26.83h-3.66Z" style="fill:#002a86; stroke-width:0px;"/><path d="M1334.14,4.88c6.5,0,12.4.58,17.68,1.73,5.28,1.15,9.82,2.98,13.62,5.49,3.79,2.51,6.71,5.76,8.74,9.76,2.03,4,3.05,8.91,3.05,14.74,0,8.94-2.64,15.79-7.93,20.53-5.28,4.74-12.4,7.93-21.34,9.55l27.03,38.62c.95,1.36,2.06,2.17,3.35,2.44,1.29.27,2.47.41,3.56.41v3.66h-38.01v-3.66c1.22,0,2.27-.2,3.15-.61.88-.41,1.32-.95,1.32-1.63s-.27-1.45-.81-2.34c-.54-.88-1.36-2.06-2.44-3.56l-22.36-31.71h-29.06v36.18c0,1.22.44,2.13,1.32,2.74.88.61,2.47.91,4.78.91v3.66h-35.16v-3.66c3.93,0,5.89-1.22,5.89-3.66V12.19c0-2.44-1.97-3.66-5.89-3.66v-3.66h69.51ZM1328.86,52.44c4.88,0,8.94-.37,12.19-1.12,3.25-.74,5.82-1.79,7.72-3.15,1.9-1.35,3.25-2.95,4.06-4.78.81-1.83,1.22-3.83,1.22-6s-.41-4.17-1.22-6c-.81-1.83-2.17-3.42-4.06-4.78-1.9-1.35-4.47-2.4-7.72-3.15-3.25-.74-7.32-1.12-12.19-1.12h-35.16v30.08h35.16Z" style="fill:#002a86; stroke-width:0px;"/><path d="M784.99,259.46c0-2.29-.73-3.59-2.17-3.89-1.45-.31-3.32-.46-5.61-.46h-108.96v-4.12c4.58,0,6.87-1.37,6.87-4.12v-103.92c0-2.75-2.29-4.12-6.87-4.12v-4.12h39.37v4.12c-4.27,0-6.41,1.37-6.41,4.12v91.1h76c2.29,0,4.16-.53,5.61-1.6,1.45-1.07,2.17-2.52,2.17-4.35h4.12v31.36h-4.12Z" style="fill:#002a86; stroke-width:0px;"/><path d="M798.26,250.99c1.98-.3,3.55-1.29,4.69-2.98,1.14-1.68,2.25-3.58,3.32-5.72l42.35-89.04c1.07-1.98,2.02-3.81,2.86-5.49.84-1.68,1.26-3.13,1.26-4.35,0-1.52-.54-2.59-1.6-3.2-1.07-.61-2.21-1.07-3.43-1.37v-4.12h38.69v4.12c-1.07.31-2.14.73-3.21,1.26-1.07.54-1.6,1.64-1.6,3.32,0,1.22.26,2.44.8,3.66.53,1.22,1.33,2.83,2.4,4.81l47.61,93.16c.76,1.68,1.79,2.9,3.09,3.66,1.29.77,2.78,1.53,4.46,2.29v4.12h-40.29v-4.12c.61,0,1.37-.23,2.29-.69s1.37-1.14,1.37-2.06c0-1.52-.61-3.51-1.83-5.95l-8.7-16.94h-55.85l-8.24,16.25c-1.53,3.2-2.29,5.49-2.29,6.87,0,1.68,1.45,2.52,4.35,2.52v4.12h-32.5v-4.12ZM884.56,208.42l-19.23-42.58-21.52,42.58h40.74Z" style="fill:#002a86; stroke-width:0px;"/><path d="M993.97,246.87c0,1.37.46,2.4,1.37,3.09.92.69,1.98,1.03,3.2,1.03v4.12h-35.71v-4.12c3.35,0,5.04-1.37,5.04-4.12v-103.92c0-2.75-1.68-4.12-5.04-4.12v-4.12h35.71v4.12c-1.22,0-2.29.34-3.2,1.03-.92.69-1.37,1.72-1.37,3.09v43.49l47.38-37.31c2.13-1.83,3.81-3.32,5.04-4.46,1.22-1.14,1.83-2.1,1.83-2.86,0-1.07-.34-1.83-1.03-2.29-.69-.46-1.49-.69-2.4-.69v-4.12h48.07v4.12c-2.75,0-5.49,1.14-8.24,3.43l-52.65,41.89,48.07,55.62c1.98,2.29,4.31,4.54,6.98,6.75,2.67,2.21,5.3,3.7,7.9,4.46v4.12h-42.35v-4.12c1.98,0,2.98-.53,2.98-1.6,0-.76-1.07-2.44-3.2-5.04l-39.14-45.09-19.23,14.88v32.73Z" style="fill:#002a86; stroke-width:0px;"/><path d="M1231.57,159.43c0-1.68-.65-2.94-1.95-3.78-1.3-.84-3.55-1.26-6.75-1.26h-74.17v28.38h44.87c3.05,0,5.42-.42,7.1-1.26,1.68-.84,2.52-3.01,2.52-6.52h4.12v35.71h-4.12c0-3.51-.84-5.76-2.52-6.75-1.68-.99-4.04-1.49-7.1-1.49h-44.87v31.59h76.45c2.29,0,4.16-.53,5.61-1.6,1.45-1.07,2.17-2.52,2.17-4.35h4.12v31.36h-4.12c0-2.29-.73-3.59-2.17-3.89-1.45-.31-3.32-.46-5.61-.46h-106.67v-4.12c1.07,0,2.02-.34,2.86-1.03.84-.69,1.26-1.72,1.26-3.09v-103.92c0-1.37-.42-2.4-1.26-3.09-.84-.69-1.79-1.03-2.86-1.03v-4.12h104.38c3.2,0,5.45-.49,6.75-1.49,1.29-.99,1.95-2.32,1.95-4.01h4.12v30.22h-4.12Z" style="fill:#002a86; stroke-width:0px;"/><path d="M1280.1,217.35l2.29,1.14c0,1.37.3,2.6.92,3.66,1.07,1.83,3.17,3.63,6.29,5.38,3.13,1.76,6.71,3.32,10.76,4.69,4.04,1.37,8.28,2.48,12.7,3.32,4.42.84,8.39,1.26,11.9,1.26,2.59,0,5.95-.19,10.07-.57,4.12-.38,8.16-1.18,12.13-2.4,3.97-1.22,7.4-2.9,10.3-5.04,2.9-2.14,4.35-4.96,4.35-8.47s-1.34-6.1-4.01-7.78c-2.67-1.68-6.18-2.9-10.53-3.66-4.35-.76-9.31-1.26-14.88-1.49-5.57-.23-11.26-.57-17.05-1.03-5.8-.46-11.48-1.22-17.05-2.29-5.57-1.07-10.53-2.86-14.88-5.38-4.35-2.52-7.86-5.95-10.53-10.3-2.67-4.35-4.01-10.03-4.01-17.05,0-4.73,1.11-9.39,3.32-13.96,2.21-4.58,5.61-8.62,10.19-12.13,4.58-3.51,10.38-6.37,17.4-8.58,7.02-2.21,15.26-3.32,24.72-3.32,8.09,0,15.11.61,21.06,1.83,5.95,1.22,11.1,2.52,15.45,3.89,4.35,1.37,8.01,2.67,10.99,3.89,2.98,1.22,5.45,1.83,7.44,1.83,2.13,0,3.66-.46,4.58-1.37l2.75,1.83-15.79,28.61-2.29-.92c-.31-2.14-.92-3.89-1.83-5.26-1.22-1.83-3.24-3.62-6.07-5.38-2.83-1.75-6.14-3.32-9.96-4.69-3.82-1.37-7.94-2.48-12.36-3.32-4.43-.84-8.85-1.26-13.28-1.26-3.36,0-6.83.27-10.42.8-3.59.54-6.83,1.34-9.73,2.4-2.9,1.07-5.3,2.48-7.21,4.23-1.91,1.76-2.86,3.93-2.86,6.52,0,3.66,1.33,6.41,4.01,8.24,2.67,1.83,6.18,3.2,10.53,4.12,4.35.92,9.31,1.53,14.88,1.83,5.57.31,11.25.69,17.05,1.14,5.8.46,11.48,1.26,17.05,2.4,5.57,1.14,10.53,2.98,14.88,5.49s7.86,5.92,10.53,10.19c2.67,4.27,4.01,9.84,4.01,16.71,0,7.94-2.1,14.42-6.29,19.46-4.2,5.04-9.42,9.01-15.68,11.9-6.26,2.9-13.01,4.85-20.26,5.84-7.25.99-14,1.49-20.26,1.49-8.7,0-15.99-.5-21.86-1.49-5.88-.99-10.76-2.21-14.65-3.66-3.89-1.45-6.98-2.75-9.27-3.89s-4.27-1.72-5.95-1.72c-1.07,0-2.06.61-2.98,1.83l-3.2-1.83,12.59-27.7Z" style="fill:#002a86; stroke-width:0px;"/><path d="M262.07,118.42c.24,1.69-.73,5.08,1.93,4.59,2.18-1.21-.48-4.11-1.93-4.59ZM256.27,120.35c-1.45,2.66,3.14,4.11,5.08,3.87-1.21-1.93-2.42-6.29-5.08-3.87ZM254.33,123.01c-.24,2.66-2.66,7.25,1.45,7.5,3.39-1.21.48-6.29-1.45-7.5ZM247.32,130.75c1.21,2.66,4.84,0,5.56-1.45-1.93,0-5.56-1.69-5.56,1.45ZM234.75,102.7c.97,1.69,1.45,5.56,3.87,3.87,1.69-2.18-2.18-3.87-3.87-3.87ZM233.3,112.13c2.66,1.45,3.87-2.9,3.63-4.59-1.45,1.21-5.56,2.18-3.63,4.59ZM272.95,92.79c-1.21,1.69-4.84,4.11-1.93,5.8,2.9.73,2.66-4.11,1.93-5.8ZM268.6,102.46c.73-2.42-3.14-2.9-4.59-2.42,1.45,1.21,2.9,4.59,4.59,2.42ZM262.56,107.05c2.42.48,6.29,3.63,7.01,0-.48-3.39-5.56-1.45-7.01,0ZM205.73,136.55c2.9.24,7.98,3.39,8.46-1.21-1.21-3.87-7.01-.73-8.46,1.21ZM207.42,126.4c-1.69,1.69-6.53,3.39-3.63,6.05,3.14,1.45,4.11-4.11,3.63-6.05ZM206.21,124.95c0-2.9-4.35-1.93-5.8-.97,1.69.73,4.59,3.87,5.8.97ZM191.22,135.83c1.93.97,4.59,4.84,6.29,1.69.24-3.14-4.59-2.66-6.29-1.69ZM196.06,130.99c.73-3.87-5.32-3.63-7.5-2.42,2.42,1.45,5.32,6.05,7.5,2.42ZM194.85,121.32c-2.9-.73-3.14,3.87-2.66,5.32,1.21-1.45,5.08-3.14,2.66-5.32ZM184.93,128.57c0,3.14-2.66,9.19,2.42,9.19,4.35-1.93,0-7.74-2.42-9.19ZM284.8,135.1c1.21-1.93,2.18-3.14,2.9-3.87.73-.97,4.35-4.59,4.59-4.84.24-.24.97-.24,1.93-.24s6.05,1.21,6.77,1.45,5.56.97,6.77.97,2.42-.73,2.42-.73c0,0-1.69-.48-2.66-.48s-5.08-1.45-5.8-1.69c-.73-.24-4.35-1.93-4.35-1.93,0,0,5.32-1.69,6.77-2.66,1.45-.97,3.63-.73,3.63-.73,0,0-1.93-1.21-2.18-1.21s-3.14.24-4.35,1.21-6.05,1.45-6.05,1.45c0,0,.24-.97,0-1.69-.24-.97.73-3.39.97-4.35.48-.97,0-4.84,0-4.84,0,0-.97,3.63-2.18,5.56-1.21,1.93-2.66,5.08-4.59,7.25-1.93,2.18-4.11,3.87-6.05,6.05-1.93,1.93-3.39,6.29-4.59,8.95-1.21,2.66-2.9,7.74-3.14,7.98-.24.24-4.84,1.21-6.29,1.21s-8.46-2.18-9.67-2.9c-.97-.73-3.63-.97-4.84-1.21s-.73-2.42-.73-2.42c0,0,7.5-6.53,9.67-8.46,2.18-1.93,3.87-1.45,5.32-1.93s4.11-1.45,6.05-2.42c1.93-.73,5.32-1.69,6.77-3.14,1.45-1.45.73-1.45,2.66-3.39,1.93-2.18,3.87-4.11,4.84-5.8.97-1.69,1.45-2.66,1.45-2.9,0,0-1.69.73-2.18,1.45s-3.39,3.39-5.8,5.56c-2.42,2.18-8.95,4.59-9.91,5.08-.97.73-5.32,2.9-4.59,1.45.73-1.69,3.63-7.25,5.08-9.67.48-.73.73-1.69,1.21-2.9.73-.24,1.21-.24,1.69-.48,1.93-.48,7.01-2.9,8.46-3.63s4.84-3.63,5.56-3.63,2.9-.73,4.35.48,3.14,1.45,5.56,1.93,4.11.24,4.11.24c0,0-.97-.24-2.42-.97-1.45-.73-2.66-.24-3.87-1.21s-.24-.97-1.21-1.69-1.93-2.66-2.9-2.66-2.18-.24-2.18-.24c0,0,1.21-2.9.97-4.84-.24-1.93-.73-3.14-.73-3.14,0,0-.48,1.45-.97,2.9-.48,1.21-1.21,3.63-2.66,5.08s-4.35,2.9-5.56,3.87c-1.21.97-3.39,2.18-5.08,2.42-.24,0-2.59.24-2.59.24v-.24s.73-5.08,2.42-7.01c1.69-1.93,8.46-6.29,9.91-7.74,1.45-1.45,2.9-.48,4.59-.24,1.69.24,5.8.48,5.8.48,0,0-1.45-1.45-2.18-2.18s-7.5-.73-7.01-1.45c.24-.73,1.21-4.59.97-6.29v-2.42s-1.52,6.05-1.77,7.25c-.48,1.21-3.63,3.87-4.59,4.84-.97.73-4.59,3.87-5.73,3.14v-3.87c.89-.73-.32-.48-.32-1.69,0-.48-.24-1.45-.48-2.42.73-.73,1.45-1.21,1.93-1.69.97-1.45,1.21-1.93,2.66-3.87s1.93-2.9,1.93-3.87c.24-.97-.97-.97-.97-.97,0,0-.97,1.93-1.93,3.39-1.21,1.45-1.93,1.93-3.14,3.39-.24.24-.73.73-.97.97-.24-.73-.24-1.21-.48-1.45-.48-.97-2.18-3.87-2.18-3.87,0,0,0,.97.24,2.42.24.73.48,2.42.97,4.11-.97.48-1.93.97-2.66,1.45q-1.69.97-3.39,2.42c-1.69,1.45-4.59,3.14-5.8,4.59-1.21,1.45-3.39,3.63-3.39,3.63,0,0,0-1.93.24-3.14.48-1.21.73-3.14,1.93-4.84,1.21-1.93,1.45-4.11,1.45-4.11,0,0-.73.24-1.69,1.69-.97,1.45-2.18,2.18-3.14,3.39-.97,1.45-2.18,2.9-2.18,5.08s.24,5.32-.24,6.53c-.48,1.45-.97,3.87-1.45,5.56s-.73,3.14-1.45,3.87c-.73.73-2.66,2.18-2.9,2.42-.24,0-1.45-4.35-1.45-6.53,0-.48,0-.73.24-.97,1.45-1.93,2.9-5.08,4.59-7.98,1.93-3.63,1.21-6.77,1.21-6.77,0,0-.48,1.21-1.69,4.11-.48.73-.97,1.69-1.69,2.66-.73.97-1.69,1.93-2.66,2.9-.24-1.45-.48-3.14-.24-4.59.48-3.39,0-4.35,1.45-6.29,1.45-1.93,3.39-5.8,5.56-7.5,2.18-1.69,3.87-3.14,6.29-4.84,2.42-1.69,4.84-3.39,6.29-3.87,1.21-.48,7.5-4.35,7.5-4.35,0,0,1.69-2.9,1.45-3.63,0-.73-1.21,0-1.21,0,0,0-1.21,1.69-3.39,3.14-2.42,1.45-5.56,2.42-6.77,2.66-.97.24-1.69-.24-1.69-.24,0,0,.97-2.9,1.45-4.59.48-1.69-.24-2.9-.24-3.87,0-1.21-.24-3.87-.24-3.87,0,0-.97-.73-1.21.97-.24,1.69-.73,2.18-.97,3.63-.24,1.45-.48,2.66-.97,4.59-.48,1.93-.24,3.63-1.69,5.08-1.45,1.21-3.87,2.9-5.08,4.35-.97,1.45-2.18,1.93-3.63,3.87-1.45,1.93-3.63,3.63-4.35,4.84-.73,1.21-2.66,4.11-2.66,4.84s-.73,3.39-.73,3.39c0,0-2.18-2.18-2.9-3.14-.24-.48-.73-1.69-.97-2.42.73-2.18,1.45-3.87,1.93-4.35,1.21-2.18,3.63-8.22,4.59-10.4.97-2.18,6.29-8.46,7.74-10.16,1.45-1.69,2.18-7.25,2.18-7.25,0,0-2.66,1.93-3.63,4.59-.97,2.66-8.71,9.91-9.19,9.43-.48-.24-1.45-4.59-1.93-6.29-.24-1.69.48-7.98,1.69-10.4.97-1.93,0-2.9,0-2.9-1.45.97-1.93.97-2.9,3.14-1.93,4.35-2.66,9.67-2.66,10.88,0,1.69.97,9.67,0,11.37-.24.48-1.45,3.14-2.66,6.53-.24-.97-.73-1.69-.73-2.42-.24-1.21-1.93-4.84-1.69-6.53.24-1.69,0-4.84,0-4.84,0,0-1.69.97-1.45,2.42.24,1.21-1.21,3.14-1.45,5.08-.24,1.69,0,3.63.48,5.08s1.69,3.14,1.93,4.59c.24.48.48,1.21.73,2.18-2.18,6.05-4.59,12.57-5.08,14.99-.97,5.08-2.42,18.38-2.42,18.38,0,0-4.35-5.8-6.29-7.98-1.93-2.18.97-8.22,3.14-11.37,1.93-2.9,2.66-9.67,2.42-11.12-.24-1.45.73-2.42.24-4.84-.24-2.42-1.45-5.8-1.93-7.5-.48-1.69.73-4.11,1.21-5.32.24-.97,1.21-3.63,1.69-5.32s5.32-10.16,5.56-12.33c.48-2.18.24-1.45,0-1.69s-4.84,6.29-7.01,9.43c-2.18,3.39-2.18,4.11-2.66,6.05-.48,2.18-4.11,7.25-3.14,9.43.97,2.18,0,7.98,0,7.98,0,0-5.32-3.87-6.05-5.56-.73-1.69,1.45-5.56.97-7.74s1.93-9.91,3.39-10.88c1.21-.97,3.63-5.56,4.35-8.22.73-2.66,0-5.32,0-5.32,0,0-2.42,6.05-2.66,7.74s-5.08,4.59-5.08,4.59c0,0-1.69-5.32-2.18-6.53-.48-.97-2.18-2.18-2.18-2.18,0,0,1.69,5.56,2.42,10.88.73,5.32-3.63,14.51-3.63,14.51-.97-.73-8.22-13.3-8.22-13.3l-.73,3.14s3.63,9.43,8.95,16.68,8.71,5.8,9.91,11.61c.97,4.35-5.08,9.43-7.98,11.61,0,0-7.01-4.59-7.74-9.91-.73-5.32-1.69-8.95-2.9-10.88s-3.14-7.25-3.87-8.22c-.73-.97-4.84-8.95-4.84-11.12-.24-2.18,0-5.8,0-5.8,0,0-1.93,2.18-1.93,3.39s.48,8.22,1.93,9.91.73,2.18.73,2.18c0,0-5.56-3.63-7.01-3.87s-1.21-.24-3.39-.48c-2.18-.24-5.32-.48-5.32-.48,0,0,.97,1.69,1.69,2.42.73.73,3.63.24,4.59,1.21s5.56,3.14,7.01,4.11,3.87,2.42,4.11,3.87c.48,1.69.48,2.9.73,5.32.24,2.42.73,3.63,1.21,5.08s.48,4.35.97,5.56c0,0-2.66.24-3.39-.73-.97-.97-2.9-2.9-3.87-4.35s-3.14-5.8-4.35-6.77c-1.21-.97-3.14-3.14-4.84-5.08-1.69-1.93-5.32-4.11-5.8-4.35-.48-.24-3.39-.73-3.39-.73l-1.69.73s1.21,1.45,2.9,2.42,3.39,2.18,4.11,3.14c.73,1.21,1.45,3.39,2.18,3.87.73.73,1.93,3.39,1.93,3.39,0,0-2.9.73-4.11.24s-3.39-1.21-4.84-1.45c-1.69,0-2.66-.24-3.39-.73s-3.14-1.45-3.14-1.45l-1.21.48s4.59,4.11,6.53,4.35c1.93.48,4.84.97,5.32,1.21s4.35,1.69,5.56,1.45c1.45,0,2.18,1.69,3.14,3.14.97,1.45,1.93,2.66,1.93,2.66,0,0-2.9,2.42-5.56.8h-1.93c-.73.89-1.69-.32-1.93-.32s-1.93-.24-4.11-1.21c-2.18-.97-2.66-1.45-3.14-1.69s-2.66.73-2.66.73c0,0,3.39,2.42,3.87,2.9.24.24,1.93,2.01,1.93,2.01,0,0,.5,0,.27,0-1.66-.47-5.2-.24-7.57-1.18-2.13-1.18-5.44-2.37-5.44-2.37v2.37s3.31,2.13,5.44,3.31c1.89,1.18,3.31,2.37,5.44,2.37,2.37,0,3.55-.24,5.44.24,1.66.47,2.84,1.42,5.2.24,2.6-1.18,5.44-2.37,7.1-2.84,1.42-.24,4.02-.24,4.02-.24l2.84,2.6s-3.08.71-4.73,2.6c-1.66,1.66-2.13,2.84-4.02,3.55-1.89.95-8.52,3.08-9.94,4.02-.71.47-1.42.71-2.37,1.18-.24-.47-.71-.71-.95-.95-1.66-1.66-3.55-3.78-5.44-4.49-1.66-.71-7.81-2.84-8.04-2.84,0,0,.47.47,2.13,2.37,1.89,1.89,4.02,2.84,4.73,3.55.24.24.71.71,1.42,1.42.71.71,1.42,1.42,2.13,2.13-1.66.47-8.04.95-9.46.95s-6.39.24-6.39.24l-1.42,1.18s1.89,1.42,3.08,1.42,3.08.24,5.68.71c.71,0,1.42.24,1.89.24-.47.47-.95.95-1.66,1.66-1.89,1.89-3.55,2.37-4.49,2.6s-2.6,1.18-2.6,1.18c0,0,.24.47,1.42.47.95,0,1.89.47,2.84,0,1.66-.95,2.6-2.13,4.02-2.13s3.31-2.13,4.02-2.84c.24-.24.47-.47.71-.95h-.62s1.45.16,2.42.16,1.93-.24,3.14-.24c.73,1.21,1.69,2.66,2.18,3.14.73.97,2.9,3.14,3.39,4.11.48.97,2.42,2.66,4.35,4.11.73.48,1.45.97,2.18,1.21-.24,0-.24.24-.48.24-1.45.97-6.29,2.42-8.71,3.14-2.9-.97-8.22-2.66-8.95-2.9-1.21-.48-3.63-2.42-3.87-2.66,0,0,.73,2.18,1.45,2.9.73.97,3.14,2.66,4.84,3.39.48.24,1.21.73,1.93.97-1.69.73-3.39,1.69-4.84,2.66-2.42,1.69-9.91,2.42-9.91,2.42,0,0,.97.97,1.69.97s2.66.24,2.66.24c0,0,8.46-.97,10.16-1.93,1.45-.73,2.42-1.21,4.35-2.18.48-.24.97-.48,1.69-.73.48-.24.97-.48,1.69-.73-.48.73-.97,1.93-1.21,3.14s-2.66,3.14-2.9,3.39,1.45,0,2.42-.48,2.18-2.42,3.87-4.59c1.21-1.45,2.9-2.66,3.87-3.39,2.9-.73,5.56-1.21,7.01-1.21,3.14.24,7.01.24,7.01.24,0,0-4.84,1.93-7.98,4.35-1.21.97-2.66,1.45-4.35,1.93-2.42.73-4.84.97-7.01,2.18-3.63,1.93-3.39,1.45-7.98,3.63-4.59,2.42-8.95,3.39-10.4,3.87-.48.24.73,1.21-1.21,2.42.73.48,3.39,0,4.59-.48,2.18-.48,4.11-1.69,5.8-2.18.24,0,.73-.24.97-.24.97-.24,1.93-.73,3.39-1.45.73-.24,1.45-.48,2.18-.73,1.45-.24,3.39-.97,4.84-1.69-.73,1.45-1.69,3.39-2.18,5.08-.48,1.93-4.35,5.56-4.59,5.8-.48.24,2.18,0,3.87-.73s3.63-4.11,6.53-7.5c2.9-3.14,7.01-5.8,7.5-6.29,2.42-.73,11.37-2.9,11.61-2.9.48,0,7.98-.73,10.16-.24,3.14.48,6.05,3.87,6.05,3.87,0,0,3.46,72.97-9.36,82.65,6.29,1.45,12.82,2.18,19.59,2.18,7.5,0,14.99-.97,22-2.66-8.22-9.19-9.74-75.15-8.53-77.81,2.42-6.53,8.46-5.8,9.91-7.01,1.45-1.21,4.11-.73,6.77-.48,2.66.48,4.59.48,6.77.97,2.18.48,7.74.24,9.67.48s2.42,1.45,3.63,1.93c1.21.48,10.64,1.45,12.33,2.9s8.46,1.21,8.46,1.21c0,0,2.42-.97.97-.97s-3.87-1.45-5.8-1.69c-1.93-.24-2.66-2.18-2.66-2.18,0,0,4.59-2.66,5.08-2.66.24,0,3.63-2.9,4.84-4.11,1.21-1.21,1.45-3.39,1.45-3.39,0,0-2.42,1.69-4.35,3.39-1.93,1.69-5.32,1.93-7.25,2.66-2.18.97-7.01.48-8.22.48-1.45,0-4.35-1.21-4.35-1.21,0,0,2.18-1.93,2.9-2.42.48-.48,2.18-1.69,2.9-2.42.73-.48,2.66-1.45,4.84-2.9s2.66-2.18,3.14-2.66,1.93-1.45,1.93-1.45c0-.24,1.93-.48,2.42-2.1h3.39c.97,1.37,2.18.89,2.18.89,0,0-1.93-.48-2.42-.48s-3.87-.97-5.56-.97c-1.69-.24-4.59,1.21-6.77,2.9-2.18,1.69-6.29,3.63-7.18,3.63v-1.21c.41,1.69,1.14-2.66,2.34-4.59ZM211.29,140.98c-1.93-.97-3.63-1.21-5.56-3.39-1.93-2.18-4.59-7.74-4.59-9.19s-1.69-5.8-1.69-5.8c0,0-3.14,2.66-2.9,3.87.48,1.21.48,5.8.73,7.5.48,1.69,2.9,5.8,2.9,5.8h-1.93c-1.69,0-4.35,0-6.29.24-1.93-.48-4.84-.97-6.53-1.69-2.66-1.45-7.25-5.32-7.98-6.29-.24-.24-.73-.73-.97-1.21,2.66-.24,5.8-1.45,7.01-2.18,1.45-.97,1.21-.97,3.63-2.9,2.42-1.93,3.87-2.66,6.29-4.35,2.66-1.69,6.53-2.42,6.53-2.42,0,0,4.59,3.14,7.25,4.59,1.45.97,1.69,1.45,2.42,1.93.48.48,1.45,2.18,1.93,3.39,1.21,2.66,2.9,3.87,3.87,6.05.97,2.18,3.14,8.46,3.14,8.46,0,0-5.32-1.45-7.25-2.42ZM262.87,102.22c.73-2.18.24-1.93,2.18-4.35,2.18-2.42,5.32-4.35,6.77-5.8.48-.48,1.21-.97,1.93-1.69.48,1.93.73,4.59.73,6.29.24,1.93-2.9,8.22-2.9,8.22,0,0-.48-.73-.73-1.69-.24-.97-2.42-5.8-2.42-5.8,0,0-.73,1.45-.73,2.42s1.93,9.19,2.66,10.16v.24c-1.21,0-2.42.24-2.9.24-1.69-.24-5.32-.73-7.5,0l-2.18.48s4.35-6.53,5.08-8.71ZM231.85,117.21s.73-8.71,1.45-11.61c.24-1.21,1.21-3.87,2.42-6.77.24.48.48.97.48,1.45.48.97,2.18,2.42,2.9,3.87.24.73.97,2.9,1.45,5.32-4.84,3.39-8.71,7.74-8.71,7.74ZM235.23,130.99c.24-3.63.73-8.71,1.69-10.4.73-1.45,2.66-3.87,4.84-5.8.24.97.24,1.69.24,1.93,0,2.18-3.63,10.4-4.59,11.37-.48.48-1.21,1.69-2.18,2.9ZM241.76,142.44c1.21-3.63,3.63-9.91,7.25-14.51,5.56-7.01,12.82-10.4,14.51-9.91h.48c.97,0,2.9-.24,4.84-.73-1.21,2.42-2.66,4.84-3.14,6.05-1.45,2.9-6.77,7.5-9.91,8.71-2.42.73-9.91,6.77-14.02,10.4ZM271.02,98.59c3.14.48,2.9-4.35,1.93-5.8-1.21,1.69-4.84,4.11-1.93,5.8ZM268.6,102.46c.73-2.42-3.14-2.9-4.59-2.42,1.45,1.21,2.9,4.59,4.59,2.42ZM269.57,107.05c-.48-3.39-5.56-1.45-7.01,0,2.42.73,6.29,3.87,7.01,0ZM264.01,123.01c1.93-1.45-.73-4.11-1.93-4.59.24,1.69-.73,5.08,1.93,4.59ZM261.35,123.98c-1.45-1.69-2.42-6.05-5.08-3.87-1.45,2.9,3.39,4.11,5.08,3.87ZM254.33,123.01c-.24,2.66-2.66,7.25,1.45,7.5,3.39-1.21.48-6.29-1.45-7.5ZM247.32,130.75c1.21,2.66,4.84,0,5.56-1.45-1.93,0-5.56-1.69-5.56,1.45ZM234.75,102.7c.97,1.69,1.45,5.56,3.87,3.87,1.69-2.18-2.18-3.87-3.87-3.87ZM233.3,112.13c2.66,1.45,3.87-2.9,3.63-4.59-1.45,1.21-5.56,2.18-3.63,4.59ZM205.73,136.55c2.9.24,7.98,3.39,8.46-1.21-1.21-3.87-7.01-.73-8.46,1.21ZM207.42,126.4c-1.69,1.69-6.53,3.39-3.63,6.05,3.14,1.45,4.11-4.11,3.63-6.05ZM206.21,124.95c0-2.9-4.35-1.93-5.8-.97,1.69.73,4.59,3.87,5.8.97ZM191.22,135.83c1.93.97,4.59,4.84,6.29,1.69.24-3.14-4.59-2.66-6.29-1.69ZM196.06,130.99c.73-3.87-5.32-3.63-7.5-2.42,2.42,1.45,5.32,6.05,7.5,2.42ZM194.85,121.32c-2.9-.73-3.14,3.87-2.66,5.32,1.21-1.45,5.08-3.14,2.66-5.32ZM184.93,128.57c0,3.14-2.66,9.19,2.42,9.19,4.35-1.93,0-7.74-2.42-9.19ZM292.54,101.01c1.93,5.32,9.43.48,11.12-2.18-3.87-.24-10.88-4.11-11.12,2.18ZM179.86,59.9c1.45,3.39.73,10.88,6.05,8.71,3.87-3.63-2.9-8.22-6.05-8.71ZM199.69,64.74c3.14,1.45,7.5,7.25,9.91,2.18.24-5.08-7.5-3.87-9.91-2.18ZM286.98,69.33c-1.93,2.66-8.22,5.8-3.87,8.95,4.59.97,4.84-6.53,3.87-8.95ZM299.07,160.98c-3.63,4.11,4.11,8.46,7.25,8.71-1.69-3.63-1.69-11.61-7.25-8.71ZM181.79,165.57c-4.84,2.18.24,9.19,2.9,10.64-.24-3.87,3.14-10.88-2.9-10.64ZM184.93,128.57c0,3.14-2.66,9.19,2.42,9.19,4.35-1.93,0-7.74-2.42-9.19ZM170.18,137.76c1.21,2.9.73,9.43,5.32,7.5,3.39-3.14-2.66-7.01-5.32-7.5ZM146.49,102.22c2.9,2.66,6.05,9.91,10.16,5.32,1.69-5.32-7.01-6.29-10.16-5.32ZM172.84,170.17c-1.69-3.14-5.8.48-6.77,2.18,2.42-.24,7.01,1.69,6.77-2.18ZM157.85,146.23c1.21,2.18,1.45,7.25,4.84,5.32,2.18-2.66-2.66-5.32-4.84-5.32ZM143.83,124.46c2.18.97,5.32,5.08,7.01,1.45,0-3.39-5.32-2.42-7.01-1.45ZM207.42,126.4c-1.69,1.69-6.53,3.39-3.63,6.05,3.14,1.45,4.11-4.11,3.63-6.05ZM161,111.16c.48,2.42-1.21,7.25,2.66,6.77,3.14-1.93-.73-6.05-2.66-6.77ZM191.22,135.83c1.93.97,4.59,4.84,6.29,1.69.24-3.14-4.59-2.66-6.29-1.69ZM151.08,131.48c1.93,1.21,3.87,5.32,6.05,2.42.97-3.14-4.11-3.14-6.05-2.42ZM196.06,71.99c-.97,2.66-5.32,6.77-1.21,8.22,4.11,0,2.66-6.29,1.21-8.22ZM202.83,51.2c.97,1.93.73,6.05,3.63,4.59,2.18-2.18-1.69-4.59-3.63-4.59ZM254.33,123.01c-.24,2.66-2.66,7.25,1.45,7.5,3.39-1.21.48-6.29-1.45-7.5ZM228.22,93.75c-1.69,1.21-5.8,2.18-3.63,4.59,2.42,1.45,3.87-2.9,3.63-4.59ZM215.64,70.78c.24,1.93-.97,6.05,2.42,5.56,2.42-1.45-.73-4.84-2.42-5.56ZM297.86,110.68c-1.93,3.63,4.11,5.56,6.53,5.32-1.93-2.42-2.9-8.22-6.53-5.32ZM298.83,127.61c-1.69.97.48,3.39,1.69,3.87-.24-1.45.48-4.11-1.69-3.87ZM302.45,138.49c-1.21,2.66,3.14,3.63,4.84,3.39-1.21-1.45-2.42-5.32-4.84-3.39ZM308.5,129.3c-1.21,2.66,3.14,3.63,4.84,3.39-1.45-1.69-2.42-5.56-4.84-3.39ZM295.93,117.93c1.45,2.42,4.84-.73,5.32-2.18-1.69.24-5.56-.97-5.32,2.18ZM289.88,129.54c-.73,2.42-4.11,6.53,0,7.5,3.63-.48,1.45-5.8,0-7.5ZM301.25,157.59c2.42,3.39,7.01-1.45,7.74-3.87-2.9.97-8.95-.73-7.74,3.87ZM290.36,158.56c-4.35-1.45-5.08,5.56-4.35,8.22,2.18-2.42,8.22-4.84,4.35-8.22ZM267.88,139.46c1.93,2.42,3.63,8.71,7.5,5.56,2.18-4.11-4.84-6.05-7.5-5.56ZM286.25,145.74c-1.21,4.35,5.8,4.84,8.22,3.87-2.42-1.93-5.08-7.74-8.22-3.87ZM302.21,150.1c1.21,4.35,7.5.97,9.19-.97-3.14-.48-8.71-3.87-9.19.97ZM296.41,138.73c-2.18,2.18,1.93,4.84,3.87,5.08-.97-1.93-.73-6.53-3.87-5.08ZM304.63,121.8c-.48,2.9,4.11,2.66,5.8,1.93-1.93-1.21-4.11-4.84-5.8-1.93ZM275.61,71.27c.48,2.18,3.87.48,4.84-.48-1.69-.24-4.35-2.18-4.84.48ZM242.97,84.81c.24,1.69-.97,4.84,1.45,4.35,2.18-.97-.24-3.63-1.45-4.35ZM191.46,156.38c-3.63.48-1.69,5.8-.24,7.25.73-2.42,4.11-6.29.24-7.25ZM154.23,154.93c-2.42-1.45-3.87,2.9-3.63,4.59,1.45-.97,5.56-1.93,3.63-4.59ZM161.96,156.87c2.18,1.21,4.84,5.32,6.77,1.93.48-3.63-4.84-2.9-6.77-1.93ZM161,136.8c-2.42-1.45-3.87,2.9-3.63,4.59,1.45-1.21,5.56-1.93,3.63-4.59ZM182.28,82.87c-1.69-2.42-4.84.73-5.32,2.42,1.93-.24,6.05.73,5.32-2.42ZM194.85,121.32c-2.9-.73-3.14,3.87-2.66,5.32,1.21-1.45,5.08-3.14,2.66-5.32ZM170.67,75.38c0,2.42-1.93,7.25,1.93,7.01,3.14-1.69-.24-6.05-1.93-7.01ZM207.18,100.52c-1.21,2.18-5.56,4.84-2.18,7.01,3.63.48,3.14-5.08,2.18-7.01ZM201.14,91.09c2.18.73,5.8,4.11,7.01.48-.48-3.39-5.56-1.93-7.01-.48ZM186.14,91.58c0,1.69-1.45,5.08,1.45,4.84,2.18-.97,0-4.11-1.45-4.84ZM218.3,114.55c2.18,2.66,5.8-1.45,6.29-3.63-2.42.73-7.5-.24-6.29,3.63ZM264.25,100.04c1.45,1.21,2.66,4.35,4.59,2.42.73-2.42-3.14-2.9-4.59-2.42ZM247.56,60.63c0,1.69-1.45,5.08,1.45,4.84,2.18-.97-.24-4.11-1.45-4.84ZM254.58,52.89c0,1.69-1.45,5.08,1.45,4.84,2.18-.97,0-4.11-1.45-4.84ZM238.37,49.02c0,1.69-1.45,5.08,1.45,4.84,2.18-1.21-.24-4.11-1.45-4.84ZM286.01,121.08c.73,2.42,4.11.48,5.08-.73-1.93,0-4.84-1.93-5.08.73ZM262.07,118.42c.24,1.69-.73,5.08,1.93,4.59,2.18-1.21-.48-4.11-1.93-4.59ZM284.08,111.65c-.48,2.18-3.14,5.56.24,6.29,2.9-.48.97-5.08-.24-6.29ZM309.22,126.4c1.21,1.93,3.87-.48,4.59-1.93-1.93.48-5.08-.73-4.59,1.93ZM296.89,143.08c-.48,1.93-3.14,5.32.24,6.05,2.9-.73.97-4.84-.24-6.05ZM296.89,131.48c-1.45.97-5.32,1.69-3.63,4.11,2.18,1.45,3.63-2.42,3.63-4.11ZM219.27,61.59c.97,1.93.97,6.29,4.11,4.84,1.93-2.42-2.42-4.59-4.11-4.84ZM170.43,119.63c.48,1.69-.48,4.84,2.18,4.35,1.93-1.45-.73-3.87-2.18-4.35ZM172.84,98.83c-.73,1.93-4.11,4.59-.97,5.8,2.66.24,1.93-4.35.97-5.8ZM152.53,119.87c.97,2.66.24,8.46,4.59,7.01,2.9-2.9-2.18-6.53-4.59-7.01ZM161,96.41c.97,2.66.24,8.46,4.59,7.01,3.14-2.66-2.18-6.53-4.59-7.01ZM250.71,73.44c0,2.66-2.66,7.5,1.69,7.5,3.39-1.45,0-6.29-1.69-7.5ZM253.61,88.43c-.24,1.93-2.42,5.08.73,5.56,2.42-.73.48-4.59-.73-5.56ZM230.88,58.69c.97,2.66.73,8.46,4.84,6.77,3.14-2.9-2.42-6.53-4.84-6.77ZM262.8,79.97c-1.21,2.18-5.56,5.32-1.93,7.25,3.63.24,2.9-5.32,1.93-7.25ZM270.29,76.1c1.21,3.87,6.77.48,8.22-1.45-2.9,0-7.98-3.14-8.22,1.45ZM221.69,53.37c2.42,3.39,6.77-1.45,7.5-3.87-2.66.73-8.46-.73-7.5,3.87ZM159.55,82.15c1.45,3.63.48,11.61,6.29,9.43,4.11-3.87-2.9-8.95-6.29-9.43ZM302.94,108.75c2.9,2.18,5.32-3.14,5.32-5.32-2.18,1.45-7.5,1.93-5.32,5.32ZM291.33,108.99c.24,2.18-.97,6.29,2.42,5.56,2.42-1.45-.73-4.84-2.42-5.56ZM272.95,130.75c-.24,3.63,5.32,2.9,7.25,1.93-2.42-1.21-5.32-5.56-7.25-1.93ZM258.44,138c-1.93,3.14,3.39,5.08,5.56,4.84-1.45-1.93-2.18-7.01-5.56-4.84ZM273.92,117.21c1.21,3.39,6.05.48,7.25-1.45-2.42,0-7.01-2.66-7.25,1.45ZM277.55,103.91c.73,3.63,6.05,1.45,7.5-.24-2.66-.48-6.77-3.63-7.5.24ZM281.9,85.29c-1.69,2.42-6.77,5.08-3.14,7.74,3.87.97,4.11-5.56,3.14-7.74ZM265.22,65.7c3.14,2.42,6.05-3.39,6.05-5.8-2.66,1.45-8.46,1.69-6.05,5.8ZM255.79,62.8c3.14,2.42,6.05-3.39,6.05-5.8-2.42,1.69-8.46,1.93-6.05,5.8ZM272.95,63.04c-1.21,2.18-5.08,4.84-1.93,6.53,3.39.48,2.9-4.59,1.93-6.53ZM241.52,62.08c3.14,2.42,6.05-3.39,6.05-5.8-2.42,1.45-8.22,1.69-6.05,5.8ZM216.37,55.06c-1.93,2.18-7.25,4.59-3.87,7.5,3.87,1.21,4.59-5.32,3.87-7.5ZM250.22,52.89c-.24,2.9-3.63,8.22,1.21,8.71,4.11-1.21.97-7.25-1.21-8.71ZM206.7,96.9c2.42,3.14,3.63,11.12,8.71,7.25,2.9-4.59-5.32-7.5-8.71-7.25ZM142.38,139.7c3.39,0,9.67,2.9,9.67-2.66-2.18-4.35-8.22.24-9.67,2.66ZM157.85,164.36c-2.66-4.84-9.43.73-10.88,3.63,4.11-.48,11.61,2.42,10.88-3.63ZM149.39,147.68c2.42,2.18,5.08,8.22,8.46,4.35,1.45-4.35-5.8-5.32-8.46-4.35ZM188.56,128.57c2.42,1.45,5.32,6.29,7.5,2.42.73-3.87-5.32-3.63-7.5-2.42ZM176.96,163.88c-1.93-4.11-7.74.24-8.95,2.66,3.14,0,9.19,2.42,8.95-2.66ZM160.51,156.14c-2.9-2.18-5.08,2.9-5.08,5.08,2.18-1.21,7.25-1.69,5.08-5.08ZM165.11,166.05c-2.9-2.18-5.08,2.9-5.08,5.08,1.93-1.21,7.01-1.69,5.08-5.08ZM168.98,131.48c-2.9-2.18-5.08,2.9-5.08,5.08,2.18-1.21,7.01-1.69,5.08-5.08ZM205.73,136.55c2.9.24,7.98,3.39,8.46-1.21-1.21-3.87-7.01-.73-8.46,1.21ZM162.69,140.18c1.93,1.21,3.87,5.32,6.05,2.42.73-3.14-4.35-3.14-6.05-2.42ZM184.21,149.13c1.45.97,3.14,4.35,5.08,2.18.48-2.9-3.63-2.9-5.08-2.18ZM173.33,118.42c2.66,1.21,6.53,5.56,8.22,1.45,0-4.35-6.29-2.9-8.22-1.45ZM208.63,71.02c-1.93,1.93-7.25,3.63-4.35,6.77,3.63,1.45,4.84-4.59,4.35-6.77ZM231.85,57.48c3.14,2.18,5.56-3.39,5.56-5.56-2.42,1.45-7.98,1.93-5.56,5.56ZM194.37,63.29c.97,1.93.73,6.05,3.63,4.59,1.93-1.93-1.93-4.35-3.63-4.59ZM234.75,102.7c.97,1.69,1.45,5.56,3.87,3.87,1.69-2.18-2.18-3.87-3.87-3.87ZM237.17,107.54c-1.69,1.21-5.8,2.18-3.63,4.59,2.42,1.45,3.87-2.9,3.63-4.59ZM235.23,72.72c-1.21,1.69-5.08,3.39-2.42,5.56,2.66.73,2.9-3.87,2.42-5.56ZM246.35,50.47c-1.21,1.69-5.08,3.39-2.42,5.56,2.9.73,2.9-3.87,2.42-5.56ZM223.87,55.31c-1.21,1.69-5.08,3.39-2.42,5.56,2.66.73,2.9-3.87,2.42-5.56ZM275.13,67.4c1.93,2.42,4.84-1.21,5.32-2.9-1.93.48-6.05-.24-5.32,2.9ZM283.35,81.91c1.69,2.42,4.84-.97,5.32-2.66-1.93.48-5.8-.48-5.32,2.66ZM297.13,91.82c2.42,2.9,6.05-1.69,6.53-3.87-2.42.73-7.74,0-6.53,3.87ZM265.46,78.52c-.24,2.9,4.35,2.18,5.8,1.21-1.93-.73-4.35-4.11-5.8-1.21ZM277.06,77.55c-1.21,1.69-4.84,3.87-2.18,5.56,2.9.73,2.9-3.87,2.18-5.56ZM227.01,68.36c1.93,2.42,4.84-1.21,5.32-2.9-2.18.48-6.05-.24-5.32,2.9ZM262.07,90.61c-.48,1.45-2.42,3.39-.24,4.11,1.93-.24.97-3.14.24-4.11ZM234.26,67.64c-.97,1.45-4.35,3.14-2.18,4.84,2.42.73,2.66-3.39,2.18-4.84ZM202.83,93.03c-.73,2.42-3.87,6.29,0,7.25,3.39-.48,1.45-5.8,0-7.25ZM193.4,67.64c-1.21,1.69-5.08,3.39-2.42,5.56,2.9.73,3.14-3.87,2.42-5.56ZM250.95,70.78c1.93,2.18,4.59-1.45,5.08-3.14-1.93.73-6.05,0-5.08,3.14ZM262.8,89.64c1.21,1.93,3.87-.73,4.35-1.93-1.69.24-4.84-.48-4.35,1.93ZM279.24,75.86c-.24,1.69-2.18,4.35.24,4.84,2.42-.73.73-4.11-.24-4.84ZM271.74,120.84c-.48,2.9,4.11,2.42,5.56,1.69-1.69-.97-3.87-4.59-5.56-1.69ZM303.91,125.91c.73,1.45,2.66,0,3.14-.97-.97,0-3.14-.97-3.14.97ZM311.64,127.85c-.24,1.69,2.42,1.45,3.14.97-.97-.48-2.18-2.66-3.14-.97ZM306.81,118.18c-.24,1.69,2.42,1.45,3.14.97-.97-.73-2.18-2.66-3.14-.97ZM303.42,110.92c-.24,1.69,2.42,1.45,3.14.97-.73-.73-2.18-2.66-3.14-.97ZM299.07,94.72c-.24,2.18,3.14,1.93,4.11,1.45-1.21-.97-2.9-3.63-4.11-1.45ZM287.22,95.69c-.24,1.69,2.42,1.45,3.14.97-.97-.48-2.18-2.66-3.14-.97ZM300.52,124.71c1.45,1.45,3.14-1.21,3.39-2.42-1.21.73-4.11.48-3.39,2.42ZM268.12,141.87c-1.69,1.21-5.8,1.93-3.87,4.59,2.66,1.45,4.11-2.9,3.87-4.59ZM274.65,154.45c-2.66,2.18,1.69,5.56,3.63,6.05-.73-2.18,0-7.25-3.63-6.05ZM263.76,134.86c.73,4.35,7.25,1.93,9.19,0-3.14-.48-7.98-4.84-9.19,0ZM302.94,129.06c-3.14,3.39,2.9,7.01,5.56,7.25-1.21-2.9-.97-9.43-5.56-7.25ZM295.44,160.49c-3.14-.24-2.42,4.84-1.21,6.29.73-2.18,4.35-4.84,1.21-6.29ZM283.83,138.97c.97,2.18,3.87,0,4.59-1.21-1.69,0-4.84-1.45-4.59,1.21ZM304.63,160.25c.48,2.9,4.84,1.45,6.29.24-2.18-.73-5.56-3.63-6.29-.24ZM295.68,153.72c-.48,2.42,3.14,2.18,4.59,1.69-1.45-.73-3.14-3.87-4.59-1.69ZM290.85,143.32c.24,2.42,3.87,1.21,4.84.24-1.45-.48-4.11-2.66-4.84-.24ZM292.06,127.12c-1.45,2.66,3.14,3.87,4.84,3.63-1.21-1.69-2.18-5.8-4.84-3.63ZM297.13,106.81c1.45,2.42,4.84-.73,5.32-2.18-1.93.24-5.8-.97-5.32,2.18ZM290.36,89.88c.48,2.18,3.87.73,4.84-.48-1.93-.24-4.59-1.93-4.84.48ZM215.4,69.81c1.93,2.18,4.59-1.45,5.08-3.14-1.93.73-6.05,0-5.08,3.14ZM248.53,93.75c.48,1.69-.24,4.84,2.42,4.11,1.93-1.45-.97-3.87-2.42-4.11ZM212.26,82.15c1.45,1.45,3.14,5.32,5.32,2.9.97-2.66-3.63-3.39-5.32-2.9ZM252.64,72.72c1.93.97,4.35,4.35,5.8,1.45.24-3.14-4.35-2.42-5.8-1.45ZM201.38,58.93c1.93.97,4.35,4.35,5.8,1.45.24-2.9-4.35-2.42-5.8-1.45ZM173.57,152.76c-2.42-1.45-3.87,2.9-3.63,4.59,1.45-1.21,5.56-1.93,3.63-4.59ZM177.2,170.41c-2.9.48-1.21,4.84,0,6.05.48-2.18,3.14-5.32,0-6.05ZM186.63,160.25c-2.9.24-1.69,4.59-.48,5.8.73-1.93,3.63-4.84.48-5.8ZM173.81,114.55c-2.42-1.45-3.87,2.9-3.63,4.59,1.69-1.21,5.8-1.93,3.63-4.59ZM150.6,130.27c-1.69-2.42-4.84.73-5.32,2.42,1.93-.24,6.05.73,5.32-2.42ZM200.41,123.98c1.93.73,4.59,3.87,5.8.97,0-2.9-4.59-1.93-5.8-.97ZM185.66,112.61c-2.9-.73-3.14,3.87-2.66,5.32,1.45-1.45,5.32-3.14,2.66-5.32ZM159.3,110.2c-1.69-2.42-4.84.73-5.32,2.42,1.93-.24,5.8.97,5.32-2.42ZM224.11,87.47c1.93,1.69,3.63,6.53,6.29,3.63,1.45-3.39-4.11-4.11-6.29-3.63ZM223.62,76.34c1.69.24,4.59,2.18,5.08-.48-.73-2.66-4.11-.73-5.08.48ZM197.03,83.6c1.69.24,4.59,2.18,5.08-.48-.48-2.42-4.11-.73-5.08.48ZM220.48,108.99c2.42,1.69,4.11-2.42,3.87-4.11-1.69.97-5.56,1.45-3.87,4.11ZM212.98,79.25c.97,1.21,2.66-.73,2.9-1.69-1.21.24-3.39-.24-2.9,1.69ZM250.95,104.64c.97,1.21,2.66-.73,2.9-1.69-.97.24-3.39-.24-2.9,1.69ZM245.63,77.07c.97,1.21,2.66-.73,2.9-1.69-.97.24-3.39,0-2.9,1.69ZM226.53,71.27c.73.73,1.69,3.14,2.9,1.93.73-1.69-1.93-2.18-2.9-1.93ZM225.8,54.1c0,1.69-1.45,5.08,1.45,4.84,2.18-.97-.24-4.11-1.45-4.84ZM268.6,83.6c0,1.69-1.45,5.08,1.45,4.84,2.18-.97,0-4.11-1.45-4.84ZM263.04,57c0,1.69-1.45,5.08,1.45,4.84,2.18-.97-.24-4.11-1.45-4.84ZM216.85,49.74c0,1.69-1.45,5.08,1.45,4.84,2.18-.97,0-4.11-1.45-4.84ZM272.95,92.79c-1.21,1.69-4.84,4.11-1.93,5.8,2.9.73,2.66-4.11,1.93-5.8ZM262.56,107.05c2.42.48,6.29,3.63,7.01,0-.48-3.39-5.56-1.45-7.01,0ZM227.01,79c-1.69,1.21-6.05,1.69-4.35,4.59,2.66,1.69,4.35-2.9,4.35-4.59ZM255.06,85.05c.97,1.93.97,6.29,4.11,4.84,1.93-2.42-2.42-4.84-4.11-4.84ZM289.64,115.76c.73.97,1.21,3.63,2.66,2.42.97-1.45-1.69-2.42-2.66-2.42ZM301.25,141.39c-.24,1.45-1.93,4.11.48,4.35,1.93-.48.48-3.63-.48-4.35ZM301,132.44c-1.21.97-4.11,1.69-2.42,3.63,1.69.97,2.66-2.42,2.42-3.63ZM280.69,117.69c-.24,1.21-1.93,3.14,0,3.63,1.69-.24.73-2.9,0-3.63ZM247.32,130.75c1.21,2.66,4.84,0,5.56-1.45-1.93,0-5.56-1.69-5.56,1.45ZM284.56,123.25c-.48,1.45-2.9,3.39-.73,4.35,2.18,0,1.45-3.14.73-4.35ZM308.5,142.6c-1.45.97-5.32,1.69-3.63,4.11,2.42,1.21,3.87-2.66,3.63-4.11ZM274.4,135.34c.48,1.69,0,5.56,2.9,4.59,1.69-1.69-1.45-4.11-2.9-4.59ZM302.45,118.66c1.93,1.69,4.11-1.93,4.11-3.39-1.45.97-5.32.73-4.11,3.39ZM285.77,97.62c0,1.93-1.45,5.32,1.69,5.08,2.18-.97-.24-4.35-1.69-5.08ZM283.83,83.84c.24,2.18-1.69,6.29,1.93,6.05,2.66-1.45-.24-5.32-1.93-6.05ZM256.03,64.25c.97,1.93.97,6.29,4.11,4.84,2.18-2.66-2.18-4.84-4.11-4.84ZM201.62,86.26c-1.45.97-4.84,1.69-3.14,3.87,2.18,1.21,3.39-2.42,3.14-3.87ZM202.83,67.64c-.73,1.45-3.63,3.63-1.21,4.84,2.42.24,1.93-3.63,1.21-4.84ZM188.8,98.83c1.69.73,4.11,3.39,5.08.73-.24-2.42-3.87-1.69-5.08-.73ZM180.34,72.23c0,1.69-1.45,5.08,1.45,4.84,2.18-.97,0-4.11-1.45-4.84ZM168.73,88.19c0,2.18-1.69,5.8,1.69,5.8,2.66-1.21-.24-4.84-1.69-5.8ZM162.93,77.79c.97,1.69,1.45,6.05,4.11,4.35,1.93-2.42-2.42-4.35-4.11-4.35ZM176.23,102.94c.97,1.69,1.45,5.8,4.11,4.35,1.69-2.42-2.42-4.35-4.11-4.35ZM159.55,121.8c.97,1.69,1.45,6.05,4.11,4.35,1.93-2.42-2.18-4.35-4.11-4.35ZM157.37,100.77c.97,1.69,1.45,6.05,4.11,4.35,1.69-2.42-2.42-4.35-4.11-4.35ZM181.31,71.75c1.93.97,4.35,4.35,5.8,1.45.24-3.14-4.11-2.42-5.8-1.45ZM182.03,86.98c2.66,1.21,6.05,6.05,8.22,1.93.24-4.11-6.05-3.14-8.22-1.93ZM148.42,114.31c2.66,1.45,6.05,6.05,8.22,1.93.24-3.87-6.29-3.14-8.22-1.93ZM153.5,91.82c2.66,1.45,6.05,6.05,8.22,1.93.24-4.11-6.05-3.39-8.22-1.93ZM241.76,63.29c.97,2.42.48,7.98,4.59,6.29,2.42-2.66-2.42-6.05-4.59-6.29ZM266.18,66.67c-.24,2.18-2.66,6.05.73,6.29,2.9-.97.73-5.32-.73-6.29ZM210.32,48.29c-.24,3.14-3.87,8.71,1.21,9.19,4.35-1.45.97-7.74-1.21-9.19ZM256.27,120.35c-1.45,2.66,3.14,4.11,5.08,3.87-1.21-1.93-2.42-6.29-5.08-3.87ZM285.29,110.44c0,2.66,4.35,1.69,5.56.73-1.69-.48-4.35-3.39-5.56-.73ZM242.97,81.66c.97,2.9,5.32.73,6.29-.73-2.18-.24-5.8-2.66-6.29.73ZM192.91,57.72c-1.93,2.18-7.25,4.59-3.87,7.5,4.11,1.45,4.59-5.08,3.87-7.5ZM175.02,66.91c-.24,3.14-3.87,8.71,1.21,9.19,4.59-1.21.97-7.5-1.21-9.19ZM299.31,78.76c-3.14,2.18-11.12,3.39-7.5,8.46,4.59,2.9,7.74-5.32,7.5-8.46Z" style="fill:#002a86; stroke-width:0px;"/><path d="M136.81,134.08c0,14.58,2.22,28.42,6.43,41.03,4.2,12.6,10.38,23.48,18.29,32.62,7.91,9.14,17.55,16.56,28.92,21.75,11.37,5.19,24.22,7.91,38.55,7.91s26.94-2.72,38.31-7.91c11.37-5.19,21.01-12.36,28.92-21.75,7.91-9.39,14.09-20.27,18.29-32.62,4.2-12.6,6.43-26.2,6.43-41.03s-1.98-27.19-6.18-39.54c-3.95-12.36-9.89-23.48-17.79-32.87-7.91-9.39-17.55-17.05-29.16-22.49-11.62-5.44-24.71-8.16-39.54-8.16s-26.69,2.47-37.81,7.66c-11.37,5.19-20.76,12.11-28.92,21.25-7.91,9.14-14.09,20.02-18.54,32.62-3.95,12.85-6.18,26.44-6.18,41.52ZM229,.86c19.52,0,37.07,3.71,52.89,11.12,15.82,7.41,29.16,17.3,40.28,29.41,11.12,12.36,19.77,26.44,25.95,42.26,6.18,15.82,9.39,32.13,9.39,48.93,0,19.77-3.46,37.81-10.13,54.37-6.67,16.56-16.06,30.65-27.68,42.51-11.62,11.86-25.21,21.01-40.53,27.68-15.32,6.67-31.63,9.89-48.69,9.89-21.75,0-40.78-4.2-57.09-12.36-16.31-8.16-29.66-18.78-40.53-31.63-10.87-12.85-18.78-26.94-24.22-42.26-5.44-15.32-7.91-30.4-7.91-44.73,0-19.28,3.21-37.07,9.89-53.38,6.67-16.56,15.57-30.89,26.94-43,11.37-12.11,24.96-21.5,40.53-28.42,15.32-6.92,32.38-10.38,50.91-10.38Z" style="fill:#bc9c22; stroke-width:0px;"/><path d="M413.59,134.08c0,14.58,2.22,28.42,6.43,41.03s10.38,23.48,18.29,32.62c7.91,9.14,17.55,16.56,28.92,21.75,11.37,5.19,24.22,7.91,38.55,7.91s26.94-2.72,38.31-7.91c11.37-5.19,21.01-12.36,28.92-21.75,7.91-9.39,14.09-20.27,18.29-32.62,4.2-12.6,6.43-26.2,6.43-41.03s-1.98-27.19-6.18-39.54c-3.95-12.36-9.89-23.48-17.79-32.87-7.91-9.39-17.55-17.05-29.16-22.49-11.62-5.44-24.71-8.16-39.54-8.16s-26.69,2.47-37.81,7.66c-11.37,5.19-20.76,12.11-28.92,21.25-7.91,9.14-14.09,20.02-18.54,32.62-3.95,12.85-6.18,26.44-6.18,41.52ZM505.77.86c19.52,0,37.07,3.71,52.89,11.12,15.82,7.41,29.16,17.3,40.28,29.41,11.12,12.36,19.77,26.44,25.95,42.26,6.18,15.82,9.39,32.13,9.39,48.93,0,19.77-3.46,37.81-10.13,54.37-6.67,16.56-16.06,30.65-27.68,42.51-11.62,11.86-25.21,21.01-40.53,27.68-15.32,6.67-31.63,9.89-48.69,9.89-21.75,0-40.78-4.2-57.09-12.36-16.31-8.16-29.66-18.78-40.53-31.63-10.87-12.85-18.78-26.94-24.22-42.26-5.44-15.32-7.91-30.4-7.91-44.73,0-19.28,3.21-37.07,9.89-53.38,6.67-16.56,15.57-30.89,26.94-43,11.37-12.11,24.96-21.5,40.53-28.42,15.32-6.92,32.38-10.38,50.91-10.38Z" style="fill:#bc9c22; stroke-width:0px;"/><path d="M81.56,4.57v4.2c-4.45,0-7.17.74-8.4,1.98-.99,1.24-1.48,3.71-1.48,6.92v232.65c0,3.21.69,5.44,1.84,6.67,1.15.99,3.91,1.48,8.05,1.48v4.2H22.24v-4.2c5.3,0,8.57-.49,10.09-1.48,1.51-.99,2.27-3.21,2.27-6.67V56.99c-2.16,1.26-7.45,2.77-16.34,4.79-9.37,2.27-14.18,5.55-14.18,10.59H0V22.95h3.8s1.48,6.83,3.46,7.82c2.22.99,4.7,1.48,7.41,1.48,2.22,0,4.45-.49,6.92-1.24s4.94-1.98,7.17-3.46c2.22-1.48,4.2-3.21,5.44-5.19,1.48-1.98,2.22-3.95,2.22-5.93,0-4.45-2.97-6.92-9.24-7.41v-3.37h54.37v-1.08Z" style="fill:#bc9c22; stroke-width:0px;"/><g style="clip-path:url(#uuid-b5c3aac7-abb9-4758-a1a4-6dd8e5196ae5);"><g style="clip-path:url(#uuid-ff169e45-64ae-4f35-ab18-485e711df786);"><path d="M444.21,101.79h62.84v123.27h-62.84v-123.27Z" style="fill:#002a86; stroke-width:0px;"/></g></g><g style="clip-path:url(#uuid-000a3742-19c1-4de7-8b3a-09c9922b49c7);"><g style="clip-path:url(#uuid-5542b618-ae45-431f-bdab-2e561194324e);"><path d="M456.29,82.46h123.27v145.02h-123.27V82.46Z" style="fill:#002a86; stroke-width:0px;"/></g></g><g style="clip-path:url(#uuid-b57a5efe-4e50-474c-822d-b8c73afc00a6);"><g style="clip-path:url(#uuid-1eefe1c9-3e22-4956-abf0-20290550fbe4);"><path d="M451.46,41.37h53.17v58.01h-53.17v-58.01Z" style="fill:#002a86; stroke-width:0px;"/></g></g><g style="clip-path:url(#uuid-5505a184-279f-463f-ae1f-5c7f00173695);"><g style="clip-path:url(#uuid-343a564f-d216-486f-9720-4d3933c459cf);"><path d="M441.79,48.62h26.59v31.42h-26.59v-31.42Z" style="fill:#002a86; stroke-width:0px;"/></g></g><g style="clip-path:url(#uuid-907b92f3-b9f5-4983-8751-091e66ec4bc4);"><g style="clip-path:url(#uuid-2e6e38c1-dab6-4013-b096-e59f31376da2);"><path d="M436.96,53.45h24.17v26.59h-24.17v-26.59Z" style="fill:#002a86; stroke-width:0px;"/></g></g><g style="clip-path:url(#uuid-be70f68c-1a09-4e17-b60f-87e875cc882a);"><g style="clip-path:url(#uuid-9c13e91c-c9d0-4d4d-80e5-5ee7f1580a63);"><path d="M485.3,63.12h82.18v43.51h-82.18v-43.51Z" style="fill:#002a86; stroke-width:0px;"/></g></g><g style="clip-path:url(#uuid-9821b415-49d9-43ff-bde5-ae68b7315acc);"><g style="clip-path:url(#uuid-16357940-cb56-4311-bc89-8d39ba302f67);"><path d="M456.29,48.62h31.42v29h-31.42v-29Z" style="fill:#002a86; stroke-width:0px;"/></g></g><g style="clip-path:url(#uuid-344b42d1-bcf8-4684-8268-56d57188cf8b);"><g style="clip-path:url(#uuid-5c181d64-f814-4340-b234-ed10638de3fd);"><path d="M444.21,101.79h65.26v72.51h-65.26v-72.51Z" style="fill:#002a86; stroke-width:0px;"/></g></g><g style="clip-path:url(#uuid-95ed82b6-14da-4462-a4cd-e52091def2c5);"><g style="clip-path:url(#uuid-93747ba5-2c76-44c4-a1d3-529379b1e9ea);"><path d="M456.29,123.55h31.42v31.42h-31.42v-31.42Z" style="fill:#002a86; stroke-width:0px;"/></g></g><g style="clip-path:url(#uuid-38acfdb9-ad81-49c9-80ed-733d77b7a86b);"><g style="clip-path:url(#uuid-d936f683-15ac-4728-8a32-149e6c7d9f80);"><path d="M451.46,142.88h70.09v82.18h-70.09v-82.18Z" style="fill:#002a86; stroke-width:0px;"/></g></g><g style="clip-path:url(#uuid-678cbe35-e575-4525-aea1-192d283ba237);"><g style="clip-path:url(#uuid-5cef307d-763a-452b-a754-34d90304e67f);"><path d="M482.88,176.72h38.67v33.84h-38.67v-33.84Z" style="fill:#002a86; stroke-width:0px;"/></g></g><g style="clip-path:url(#uuid-bc21e63a-a4bc-4c7d-af7b-d12e3e692445);"><g style="clip-path:url(#uuid-615781e3-0821-4d4b-ad29-06101ef2b31f);"><path d="M475.63,186.39h53.17v38.67h-53.17v-38.67Z" style="fill:#002a86; stroke-width:0px;"/></g></g><g style="clip-path:url(#uuid-7c003a45-50e6-491d-92d5-d0adc4b2cd8e);"><g style="clip-path:url(#uuid-26cb9380-87f6-4cb4-965f-8a8ffb913743);"><path d="M499.8,183.97h77.34v43.51h-77.34v-43.51Z" style="fill:#002a86; stroke-width:0px;"/></g></g><g style="clip-path:url(#uuid-958cd2da-29a1-4030-a112-5b15b0c1c1c7);"><g style="clip-path:url(#uuid-540dd3b9-418d-4413-9b32-75313eba639c);"><path d="M526.39,196.06h41.09v31.42h-41.09v-31.42Z" style="fill:#002a86; stroke-width:0px;"/></g></g><g style="clip-path:url(#uuid-2f995caf-1790-48f9-9d57-0ac432710892);"><g style="clip-path:url(#uuid-4665cd76-fb77-44a1-875a-362f27bc801d);"><path d="M552.97,183.97h24.17v33.84h-24.17v-33.84Z" style="fill:#002a86; stroke-width:0px;"/></g></g><g style="clip-path:url(#uuid-844e83df-25ef-4b56-9219-707a847c5da5);"><g style="clip-path:url(#uuid-76ebfcd7-73fc-4dbf-8361-0be1e672ce19);"><path d="M552.97,183.97h24.17v24.17h-24.17v-24.17Z" style="fill:#002a86; stroke-width:0px;"/></g></g><g style="clip-path:url(#uuid-c32dc517-20bb-4d64-96de-792bed17eec8);"><g style="clip-path:url(#uuid-07a2dd89-d27d-41b4-baf0-d95b3b26d1ab);"><path d="M492.55,174.3h65.26v43.51h-65.26v-43.51Z" style="fill:#002a86; stroke-width:0px;"/></g></g><g style="clip-path:url(#uuid-41afbbc8-8fab-4572-8bf2-8372c1dafecd);"><g style="clip-path:url(#uuid-1683a053-7adb-4ee0-9c03-31f77b8080ee);"><path d="M521.55,179.14h26.59v26.59h-26.59v-26.59Z" style="fill:#002a86; stroke-width:0px;"/></g></g><g style="clip-path:url(#uuid-11440f49-bcb7-41f5-a609-82a9c2e85ffe);"><g style="clip-path:url(#uuid-e18b6af8-5788-4dac-b88c-cefe72b58f66);"><path d="M475.63,152.55h24.17v24.17h-24.17v-24.17Z" style="fill:#002a86; stroke-width:0px;"/></g></g><g style="clip-path:url(#uuid-b881db4a-294e-4cc5-951d-61871b386508);"><g style="clip-path:url(#uuid-e74e7f3c-9411-43b1-a774-f8966cc4ff2a);"><path d="M473.21,152.55h36.26v36.26h-36.26v-36.26Z" style="fill:#002a86; stroke-width:0px;"/></g></g><g style="clip-path:url(#uuid-f60db3ee-e15f-4723-9f88-4218d22d22ac);"><g style="clip-path:url(#uuid-c7a343e8-fee4-4492-a7a3-ccadf3e84d89);"><path d="M468.38,145.3h38.67v33.84h-38.67v-33.84Z" style="fill:#002a86; stroke-width:0px;"/></g></g><g style="clip-path:url(#uuid-fcbf029f-ec8e-4adc-a444-469056acb804);"><g style="clip-path:url(#uuid-0145fbd4-df75-48ca-92d9-eb3b8c25be16);"><path d="M470.79,150.13h24.17v24.17h-24.17v-24.17Z" style="fill:#002a86; stroke-width:0px;"/></g></g><g style="clip-path:url(#uuid-6fd01bb2-713e-4b7f-8b60-a17917da0928);"><g style="clip-path:url(#uuid-eb936659-4ed4-4b68-9abf-72f14db4f482);"><path d="M468.38,142.88h31.42v33.84h-31.42v-33.84Z" style="fill:#002a86; stroke-width:0px;"/></g></g><g style="clip-path:url(#uuid-e3e7d50f-c2cd-468b-a45a-5c9f2a4b905c);"><g style="clip-path:url(#uuid-c1e3eb64-9887-413e-a222-e6b83fde27c3);"><path d="M465.96,135.63h33.84v38.67h-33.84v-38.67Z" style="fill:#002a86; stroke-width:0px;"/></g></g><g style="clip-path:url(#uuid-c7458c2a-a9ce-4aca-a597-3390c5006c2b);"><g style="clip-path:url(#uuid-ca2c1ae1-b95c-4050-aa9e-3379c59084d0);"><path d="M468.38,106.63h55.59v67.68h-55.59v-67.68Z" style="fill:#002a86; stroke-width:0px;"/></g></g><g style="clip-path:url(#uuid-5ee044dd-b9c5-4678-8005-6729126df7aa);"><g style="clip-path:url(#uuid-6ad12df7-f80f-4eaf-b919-5143bc14f55b);"><path d="M475.63,96.96h33.84v45.92h-33.84v-45.92Z" style="fill:#002a86; stroke-width:0px;"/></g></g><g style="clip-path:url(#uuid-81f9d9a3-f6a2-4a29-824c-75960966d116);"><g style="clip-path:url(#uuid-b8d42e9f-5ff0-45e0-ba8e-95d01b684e1e);"><path d="M475.63,106.63h24.17v24.17h-24.17v-24.17Z" style="fill:#002a86; stroke-width:0px;"/></g></g><g style="clip-path:url(#uuid-2bb1a786-c48f-401b-bc32-83df19fbf93a);"><g style="clip-path:url(#uuid-f3482511-6a96-479d-8b85-504b8849bcc0);"><path d="M478.05,84.87h31.42v38.67h-31.42v-38.67Z" style="fill:#002a86; stroke-width:0px;"/></g></g><g style="clip-path:url(#uuid-09d6de46-f4b3-466d-a292-a647c92c0e29);"><g style="clip-path:url(#uuid-9b97afa0-fd32-4640-8cf5-0a4cf3eb963f);"><path d="M487.71,84.87h24.17v24.17h-24.17v-24.17Z" style="fill:#002a86; stroke-width:0px;"/></g></g><g style="clip-path:url(#uuid-c120e959-e6a5-4bf1-8dc9-b8ecb7032c18);"><g style="clip-path:url(#uuid-8ffe3977-dcd3-44d1-a24d-659b638fd4a7);"><path d="M490.13,72.79h31.42v29h-31.42v-29Z" style="fill:#002a86; stroke-width:0px;"/></g></g><g style="clip-path:url(#uuid-270e16cb-bd9c-430f-b9a7-fa07b284faf3);"><g style="clip-path:url(#uuid-6ae51f4d-6158-4037-8078-959d895bec00);"><path d="M487.71,75.21h26.59v29h-26.59v-29Z" style="fill:#002a86; stroke-width:0px;"/></g></g><g style="clip-path:url(#uuid-e208368f-66f2-4286-830c-2b1277842b89);"><g style="clip-path:url(#uuid-d3604617-be8e-43e9-85dc-301e48023f56);"><path d="M499.8,63.12h67.68v41.09h-67.68v-41.09Z" style="fill:#002a86; stroke-width:0px;"/></g></g><g style="clip-path:url(#uuid-1777dfe5-b72d-4360-9217-c2f858be5027);"><g style="clip-path:url(#uuid-265fa4c3-9f35-46c5-94d0-f436cf06300a);"><path d="M504.63,60.7h29v26.59h-29v-26.59Z" style="fill:#002a86; stroke-width:0px;"/></g></g><g style="clip-path:url(#uuid-be2da55e-734a-43fa-ab2b-d20834d85dd9);"><g style="clip-path:url(#uuid-a781d93f-bdb0-4435-b078-0c814f9cddb1);"><path d="M526.39,67.96h31.42v26.59h-31.42v-26.59Z" style="fill:#002a86; stroke-width:0px;"/></g></g><g style="clip-path:url(#uuid-c7acaef6-0a64-45c8-b38d-a0a09e13c7b6);"><g style="clip-path:url(#uuid-48b78de2-86bb-48b3-8bea-2c139fe60e20);"><path d="M526.39,72.79h41.09v26.59h-41.09v-26.59Z" style="fill:#002a86; stroke-width:0px;"/></g></g><g style="clip-path:url(#uuid-5c89281a-7528-47b6-9096-847ac15b9d0c);"><g style="clip-path:url(#uuid-b7561beb-e3b0-43d0-93f7-4d1101f4ec8b);"><path d="M531.22,67.96h26.59v33.84h-26.59v-33.84Z" style="fill:#002a86; stroke-width:0px;"/></g></g><g style="clip-path:url(#uuid-59932b32-6fd9-440b-a504-33fb71882eef);"><g style="clip-path:url(#uuid-2bb10770-f1c7-4a4b-96ce-91727248fb4c);"><path d="M523.97,181.56h31.42v31.42h-31.42v-31.42Z" style="fill:#002a86; stroke-width:0px;"/></g></g><g style="clip-path:url(#uuid-ccf519f2-b45e-4b91-a6d8-d3813d8904fb);"><g style="clip-path:url(#uuid-29d1ed61-48b9-45cd-b853-1dabfc1c503c);"><path d="M444.21,51.04h24.17v29h-24.17v-29Z" style="fill:#002a86; stroke-width:0px;"/></g></g><g style="clip-path:url(#uuid-b632c1d6-86ec-4ee7-9d85-d0b0d976af72);"><g style="clip-path:url(#uuid-2a1baf53-61b5-4779-ab33-99f8bbd83e0b);"><path d="M444.21,55.87h24.17v24.17h-24.17v-24.17Z" style="fill:#002a86; stroke-width:0px;"/></g></g><g style="clip-path:url(#uuid-2a28f1c1-8256-4e45-abbf-e63f4866c0cd);"><g style="clip-path:url(#uuid-7e1260ed-0d3d-4711-85ac-2a33a9b73ba3);"><path d="M446.62,53.45h24.17v24.17h-24.17v-24.17Z" style="fill:#002a86; stroke-width:0px;"/></g></g><g style="clip-path:url(#uuid-313c69ef-71e0-4e9f-abc1-11281d8ac61b);"><g style="clip-path:url(#uuid-0e9b3175-24a1-4a08-84e0-c22c4a29484a);"><path d="M436.96,53.45h24.17v24.17h-24.17v-24.17Z" style="fill:#002a86; stroke-width:0px;"/></g></g><g style="clip-path:url(#uuid-6031dab3-2f89-418f-a08d-0892da4b5be4);"><g style="clip-path:url(#uuid-2b6d0bec-5283-47a6-94c4-60f10e9867e8);"><path d="M436.96,53.45h24.17v24.17h-24.17v-24.17Z" style="fill:#002a86; stroke-width:0px;"/></g></g><g style="clip-path:url(#uuid-b28d4adc-393a-4920-ac7d-b1920033f441);"><g style="clip-path:url(#uuid-4f696a11-67eb-40d4-a273-50daa2211620);"><path d="M436.96,53.45h24.17v26.59h-24.17v-26.59Z" style="fill:#002a86; stroke-width:0px;"/></g></g><g style="clip-path:url(#uuid-04b75349-d479-4910-bacd-c819e89d7c08);"><g style="clip-path:url(#uuid-d44a2c4b-0c47-415d-b97e-d39162e6f80e);"><path d="M453.88,43.78h50.76v53.17h-50.76v-53.17Z" style="fill:#002a86; stroke-width:0px;"/></g></g><g style="clip-path:url(#uuid-878bdb31-a18d-4a1c-ac6d-cf7df9b2e08d);"><g style="clip-path:url(#uuid-2301ac71-eb75-40cc-8170-4f296e03db3c);"><path d="M463.54,60.7h36.26v38.67h-36.26v-38.67Z" style="fill:#002a86; stroke-width:0px;"/></g></g><g style="clip-path:url(#uuid-7422e5dd-ffca-4f24-a838-4382093281af);"><g style="clip-path:url(#uuid-572997a4-f472-4ca1-98d9-d22f0807df98);"><path d="M451.46,51.04h33.84v31.42h-33.84v-31.42Z" style="fill:#002a86; stroke-width:0px;"/></g></g><g style="clip-path:url(#uuid-4fb3e721-8122-43f6-811f-01fd18fff222);"><g style="clip-path:url(#uuid-5ebf08f1-f51c-4c7b-bf2c-abfb764803e4);"><path d="M456.29,41.37h24.17v24.17h-24.17v-24.17Z" style="fill:#002a86; stroke-width:0px;"/></g></g><g style="clip-path:url(#uuid-3f5b89db-ec14-4d55-9cd2-88d548b16c3a);"><g style="clip-path:url(#uuid-fed82312-ccdb-41f7-8c00-09f389c68099);"><path d="M470.79,145.3h33.84v31.42h-33.84v-31.42Z" style="fill:#002a86; stroke-width:0px;"/></g></g><g style="clip-path:url(#uuid-aebed71d-fa44-4f03-9042-a0259b7ca623);"><g style="clip-path:url(#uuid-8fefd1cc-0ab4-45fd-91e8-b481981bdd42);"><path d="M519.14,179.14h33.84v31.42h-33.84v-31.42Z" style="fill:#002a86; stroke-width:0px;"/></g></g><g style="clip-path:url(#uuid-6166f12f-125b-4867-9951-d639b6b888cb);"><g style="clip-path:url(#uuid-d5da962f-37ca-452e-8339-91de0c22182a);"><path d="M490.13,159.8h26.59v33.84h-26.59v-33.84Z" style="fill:#002a86; stroke-width:0px;"/></g></g></g></svg>